<?xml version="1.0" encoding="utf-8"?>
<svg xmlns:xlink="http://www.w3.org/1999/xlink" xmlns="http://www.w3.org/2000/svg" width="64px" height="29px"
     viewBox="0 0 64 29" version="1.1">

    <title>Logo IAGTO</title>
    <desc>Created with Sketch.</desc>
    <defs>
        <polygon id="path-1"
                 points="0.0122810423 3.42953994 3.4831141 3.42953994 3.4831141 0.00389466255 0.0122810423 0.00389466255 0.0122810423 3.42953994"/>
        <polygon id="path-3" points="0 28.752055 63.2399998 28.752055 63.2399998 0 0 0"/>
    </defs>
    <g id="Page-1" stroke="none" stroke-width="1" fill="none" fill-rule="evenodd">
        <g id="Footer-Desktop_DropdownOpen" transform="translate(-60.000000, -565.000000)">
            <g id="Logo-IAGTO" transform="translate(60.000000, 565.000000)">
                <path d="M0,11.0651194 C0.0496778924,11.0671685 0.0993557848,11.0709648 0.149033677,11.0709863 C1.53008336,11.0713099 2.91111168,11.0712236 4.29216136,11.0712667 C4.43613328,11.0712667 4.43621871,11.0714393 4.43621871,11.21768 C4.43626142,12.6124243 4.43626142,14.007147 4.43628278,15.4018913 L4.43628278,15.5254842 C4.44585101,15.5279 4.45539788,15.5303589 4.4649661,15.5327962 C4.48658004,15.4867455 4.51133356,15.4419242 4.52938077,15.3945146 C5.06494519,13.9882954 5.60031739,12.582033 6.13342567,11.1748863 C6.16140419,11.1010757 6.19606766,11.0693471 6.27861497,11.069498 C7.75218599,11.0719354 9.22575701,11.0712667 10.6993494,11.0712452 L10.795886,11.0712452 C10.734739,11.2615954 10.6777354,11.4390256 10.617336,11.6270463 L14.335596,11.6270463 C14.2769265,11.443965 14.2216529,11.2714311 14.1610826,11.0823966 C14.2073646,11.0781258 14.2437154,11.0718275 14.2800447,11.0718275 C17.0777259,11.0713314 19.8754071,11.0715903 22.673067,11.0699294 C22.7536494,11.0698863 22.7880566,11.0916067 22.8097559,11.1768275 C23.0471676,12.1096408 23.4489263,12.9563058 24.1131065,13.6609576 C24.7654759,14.3530776 25.5550896,14.7840565 26.4963639,14.912524 C27.313294,15.0239949 28.1147825,14.9602356 28.8788524,14.6284546 C29.8715773,14.1973895 30.4600873,13.4303373 30.6755646,12.3662524 C30.7024539,12.2334925 30.717148,12.0982306 30.7397444,11.949229 C30.6822069,11.9461445 30.6345793,11.9413561 30.5869517,11.9413345 C29.469306,11.9409247 28.3516602,11.9398678 27.2340144,11.9430817 C27.1375632,11.9433621 27.1032201,11.9199592 27.1067441,11.8179574 C27.1142193,11.6025435 27.1113147,11.3866334 27.1077907,11.1710038 C27.106616,11.0982285 27.1266495,11.0614311 27.2037079,11.0708569 C27.2282692,11.0738551 27.2534712,11.0712452 27.2783956,11.0712452 L35.5859872,11.0712452 C35.614457,11.0712452 35.6429481,11.071957 35.6714178,11.071353 C35.7241285,11.0702314 35.7466395,11.0847692 35.7375838,11.1479245 C35.6161015,11.9957327 35.4155745,12.8222302 35.0793624,13.6107871 C34.648301,14.6217465 34.0532342,15.5233272 33.2767768,16.2970013 C32.3577999,17.21271 31.2699907,17.8429257 30.0356895,18.2200888 C29.4358599,18.4033427 28.8235361,18.5295886 28.2005121,18.5783571 C27.6838919,18.6188214 27.1626371,18.6414908 26.6453121,18.621647 C25.3788035,18.5730942 24.1542413,18.3142178 22.9919153,17.7882903 C22.2037113,17.4316613 21.4847915,16.9666243 20.838509,16.3875713 C20.811043,16.3629606 20.7821675,16.3399244 20.753954,16.3161333 C20.7455818,16.3217845 20.7372097,16.3274357 20.7288588,16.3330654 C20.9397015,16.9005356 21.1505442,17.4680274 21.3670894,18.0507903 L21.2435354,18.0507903 C19.7592856,18.0508119 18.2750144,18.0497981 16.7907646,18.0530551 C16.6876712,18.0532708 16.6356012,18.0285523 16.597371,17.9235738 C16.2650247,17.0112083 15.9241566,16.1020351 15.5906142,15.1901011 C15.5533878,15.088358 15.5097968,15.0461035 15.3946577,15.0463624 C13.4441277,15.0505253 11.4935763,15.0504606 9.54304625,15.0465349 C9.42737322,15.0462977 9.37662744,15.0846265 9.33549261,15.190856 C8.97967417,16.1097354 8.61646599,17.0256814 8.26043397,17.9444315 C8.22397646,18.0385173 8.17015519,18.0523865 8.0832082,18.0523433 C5.44570936,18.0505315 2.80821053,18.0508766 0.170711691,18.0510492 C0.113793556,18.0510492 0.0568967779,18.05271 0,18.0536159 L0,11.0651194 Z"
                      id="Fill-1" fill="#000000"/>
                <path d="M0,0.77649961 C0.0458335155,0.779627178 0.0916456734,0.785472494 0.137457831,0.785494064 C1.52493616,0.785968591 2.9124145,0.787111771 4.29989283,0.783444968 C4.40734317,0.783164565 4.43777782,0.810449899 4.43767103,0.920906968 C4.43470231,4.0395451 4.43530033,7.15820479 4.43523626,10.2768645 C4.43523626,10.414801 4.43485182,10.4151893 4.29043139,10.4151893 C2.91363188,10.4153187 1.53683238,10.415254 0.160011509,10.4154265 C0.106681459,10.4154265 0.0533514081,10.4171305 0,10.4180364 L0,0.77649961 Z"
                      id="Fill-3" fill="#000000"/>
                <path d="M54.3125023,0 C54.3638248,0.00946898136 54.4149123,0.0254087928 54.4665337,0.0274794584 C55.3310059,0.0620336911 56.1700412,0.232108675 56.9870994,0.514064311 C57.8780124,0.821515018 58.7020759,1.25984905 59.460123,1.82391131 C60.309773,2.45615454 61.0351642,3.21076118 61.6248275,4.09463343 C61.6902033,4.19262337 61.7119667,4.32702251 61.7316371,4.44824272 C61.8302241,5.05544385 61.8690095,5.66818832 61.8401126,6.28222696 C61.7915667,7.31423808 61.5809803,8.31285971 61.1924846,9.27093082 C60.8380545,10.1449243 60.3578704,10.9419148 59.7556274,11.6641242 C59.7377938,11.6855211 59.7179952,11.7051924 59.685254,11.740631 C59.7012722,11.5745032 59.7165216,11.4277448 59.7294216,11.2807706 C59.7740377,10.7729615 59.8099186,10.2649366 59.7697662,9.75471164 C59.7466786,9.46179873 59.7313865,9.16821717 59.704006,8.87573565 C59.6444395,8.23939422 59.5172333,7.6156062 59.3460731,7.00081264 C58.8881438,5.35625117 58.112797,3.88219608 57.0205455,2.5771375 C56.1698917,1.56072108 55.1757358,0.717162098 54.0443998,0.0368190232 C54.026203,0.0258833203 54.0095227,0.012337716 53.9921376,0 L54.3125023,0 Z"
                      id="Fill-5" fill="#000000"/>
                <path d="M63.2399998,9.85723116 C63.2316489,9.89424431 63.2177024,9.93093392 63.2158016,9.96829217 C63.0962201,12.2999048 62.2372368,14.3124408 60.6436998,16.0001196 C59.4733861,17.2395855 58.0591253,18.0755305 56.4265893,18.5361242 C56.4168715,18.5388635 56.4062141,18.5382164 56.3720205,18.5413224 C56.432249,18.4748885 56.4792145,18.4212022 56.5281449,18.369414 C57.8093689,17.0126319 58.7191193,15.4358416 59.2694205,13.6465708 C59.3230923,13.4720957 59.3639922,13.2936302 59.4177067,13.1191982 C59.4347501,13.0639157 59.4643518,13.0053116 59.5049527,12.9657748 C60.6673214,11.834005 61.4964894,10.4931628 61.9854942,8.93912822 C62.164215,8.37114032 62.2993448,7.79195789 62.3487664,7.19731018 C62.3843269,6.76913535 62.3941728,6.33873887 62.4146548,5.90931302 C62.4173458,5.85293052 62.4150178,5.79628919 62.4370803,5.73328487 C62.5310112,5.97852933 62.630965,6.22163842 62.7176771,6.46949278 C62.9191652,7.0455045 63.0595063,7.63780115 63.1419041,8.24252179 C63.1800488,8.52249304 63.1905995,8.80623894 63.2153103,9.08812987 C63.2188984,9.12921964 63.2315421,9.16948977 63.2399998,9.21014815 L63.2399998,9.85723116 Z"
                      id="Fill-7" fill="#000000"/>
                <path d="M33.5315095,28.752055 C33.3859785,28.720995 33.2370302,28.700957 33.095429,28.6569554 C32.4241154,28.4482711 32.0093925,27.9061234 31.9674461,27.196791 C31.9373959,26.6892191 32.0412582,26.2264469 32.3978668,25.8442365 C32.6358124,25.589178 32.9285831,25.4378684 33.2673154,25.3794799 C33.7158474,25.3021751 34.1606418,25.3079341 34.5871327,25.4908861 C34.9451296,25.6444604 35.1641096,25.9194707 35.256396,26.3146012 C35.0168059,26.3564674 34.783858,26.3971258 34.5447164,26.4389058 C34.4488419,26.1689212 34.261514,26.010882 33.9950132,25.9415147 C33.5368703,25.8222788 33.0180289,26.0117663 32.8405041,26.3943002 C32.6353425,26.8363658 32.6514248,27.2897337 32.8776664,27.7207557 C33.0245003,28.0004897 33.2786777,28.138987 33.5893247,28.1692273 C33.9200692,28.2014521 34.2246934,28.1195745 34.5033893,27.9421012 C34.5392488,27.9192807 34.5678681,27.8608491 34.5720755,27.816222 C34.5820068,27.7102514 34.5752578,27.602663 34.5752578,27.4856704 L33.7596733,27.4856704 L33.7596733,26.9261377 L35.2993035,26.9261377 C35.3009053,26.9596782 35.3039381,26.994254 35.3039808,27.0288298 C35.3043225,27.3989613 35.3019732,27.7690928 35.3059244,28.1391595 C35.3067573,28.2162703 35.2826659,28.2649741 35.2209423,28.3083718 C34.8837264,28.5452041 34.5058455,28.669897 34.1039799,28.7313915 C34.06953,28.736676 34.0355714,28.7451096 34.0013778,28.752055 L33.5315095,28.752055 Z"
                      id="Fill-9" fill="#000000"/>
                <g id="Group-13" transform="translate(3.075502, 25.322515)">
                    <mask id="mask-2" fill="white">
                        <use xlink:href="#path-1"/>
                    </mask>
                    <g id="Clip-12"/>
                    <path d="M0.770825331,1.71163162 C0.770825331,1.76190997 0.768710923,1.8122746 0.771145695,1.86242353 C0.802840447,2.51597737 1.25555854,2.91688843 1.89814614,2.84329352 C2.25832154,2.80205277 2.51820141,2.60497285 2.64683854,2.2550735 C2.74830873,1.97907103 2.75027363,1.69254267 2.70995039,1.4048927 C2.65121685,0.985798609 2.39881215,0.705395972 2.00224332,0.613833726 C1.58241601,0.516943831 1.1545155,0.666441575 0.942476758,0.990608593 C0.799850376,1.20861086 0.766318867,1.45642208 0.770825331,1.71163162 L0.770825331,1.71163162 Z M1.49504186,3.42955073 C1.37757479,3.40472431 1.25797195,3.38740406 1.14298237,3.35388516 C0.515814997,3.17091165 0.156557977,2.74215445 0.0454768428,2.10065792 C-0.00825900301,1.79031691 0.00222760283,1.47689147 0.0843691223,1.17142515 C0.22703822,0.640795518 0.552507439,0.272303315 1.07636786,0.110467854 C1.56573568,-0.0407123059 2.06108364,-0.0376494464 2.53836303,0.162212925 C3.07986488,0.388950812 3.38119995,0.811323461 3.46003104,1.39591982 C3.50073871,1.69791346 3.4899531,1.99841881 3.40883675,2.29292786 C3.23855221,2.91128038 2.74405856,3.33033133 2.09901483,3.40888721 C2.06817438,3.41261872 2.0380601,3.42249752 2.00762545,3.42955073 L1.49504186,3.42955073 Z"
                          id="Fill-11" fill="#000000" mask="url(#mask-2)"/>
                </g>
                <path d="M58.1566699,27.0337455 C58.1487035,27.0324513 58.1407585,27.0311787 58.1328134,27.0298846 C58.1328134,26.9760257 58.135654,26.9219943 58.1323436,26.8683511 C58.0982995,26.3152461 57.8036066,25.9851906 57.2837187,25.916341 C56.83162,25.8564858 56.4055349,26.0862003 56.2626949,26.4835092 C56.1350616,26.8385421 56.1316871,27.203044 56.2536606,27.560622 C56.3881284,27.9548466 56.7410208,28.1810884 57.1853454,28.1753078 C57.6013283,28.1698938 57.943008,27.9345929 58.0616925,27.5490608 C58.1126732,27.3833644 58.1261285,27.2058696 58.1566699,27.0337455 L58.1566699,27.0337455 Z M56.9181398,28.7520528 C56.8104332,28.7310658 56.7018723,28.7138318 56.5951695,28.6885093 C55.9699029,28.5401763 55.5219262,28.0306416 55.4437572,27.3862979 C55.4061678,27.0764745 55.4090297,26.7673846 55.4968523,26.4682381 C55.6829629,25.8342261 56.1127002,25.4708243 56.754946,25.3660832 C57.0878691,25.3117713 57.4216251,25.3195795 57.7485039,25.4125653 C58.4289586,25.6061294 58.8500674,26.1547479 58.8829795,26.8832556 C58.8983784,27.2242252 58.8710619,27.5597161 58.7214516,27.8710278 C58.474365,28.3851784 58.0518466,28.652704 57.5011182,28.7315403 C57.470171,28.7359621 57.4399286,28.7451075 57.4093658,28.7520528 L56.9181398,28.7520528 Z"
                      id="Fill-14" fill="#000000"/>
                <path d="M27.1640723,27.0357903 C27.1640723,27.0034577 27.1648412,26.9711035 27.1639656,26.9387925 C27.1476056,26.3414486 26.8454589,25.9814764 26.305623,25.9159484 C25.767517,25.8506146 25.3231284,26.1561672 25.235199,26.6840575 C25.1981221,26.9066325 25.2033547,27.143357 25.2309274,27.3684556 C25.2810111,27.776916 25.564299,28.0634875 25.9620852,28.1540791 C26.3553222,28.243657 26.7584692,28.0987104 26.9745873,27.7852418 C27.1297292,27.5602079 27.1596299,27.3007492 27.1640723,27.0357903 L27.1640723,27.0357903 Z M25.9281906,28.7520485 C25.8416708,28.7351165 25.7546383,28.7205572 25.6687379,28.7008427 C24.9513985,28.5361816 24.494473,27.9836159 24.4548972,27.2315329 C24.4374053,26.8988459 24.4573106,26.5688983 24.5942559,26.260628 C24.8215867,25.7489363 25.220932,25.4556998 25.765189,25.3681711 C26.1524673,25.3058786 26.5401727,25.3134494 26.9103435,25.4583745 C27.5486382,25.7082563 27.8628306,26.1986806 27.9080233,26.8772334 C27.9305129,27.2147519 27.8984338,27.5464466 27.7543764,27.8552346 C27.5094896,28.3802131 27.0830841,28.6535194 26.5232147,28.7317733 C26.488359,28.736648 26.4539946,28.745211 26.4194165,28.7520485 L25.9281906,28.7520485 Z"
                      id="Fill-16" fill="#000000"/>
                <path d="M45.5985814,28.752055 C45.4341275,28.7110731 45.2642274,28.6850172 45.1062662,28.6261974 C44.6888737,28.4708327 44.4187848,28.0822162 44.3942876,27.6158851 C44.5756781,27.5984354 44.7591617,27.5888802 44.9396979,27.5603869 C45.0530002,27.5425274 45.0968902,27.5720991 45.1290975,27.686223 C45.2111323,27.9770653 45.4315219,28.1451559 45.7293329,28.1693568 C45.9153153,28.1844769 46.0991406,28.1784591 46.2735685,28.1016934 C46.4892381,28.0067664 46.5975427,27.8154239 46.5373569,27.6350387 C46.489772,27.4923569 46.3690372,27.4338606 46.2407418,27.3979691 C46.0115956,27.3338432 45.7793525,27.2809549 45.5486686,27.2223508 C45.3105308,27.1618485 45.0705135,27.1017345 44.8697516,26.9502092 C44.3350415,26.546602 44.3914257,25.7885227 44.9971927,25.5050572 C45.5536449,25.2446925 46.133441,25.2607186 46.689402,25.523801 C47.0126286,25.6767499 47.1607653,25.9657156 47.1800513,26.3362784 C46.9387312,26.3479259 46.7024301,26.3593146 46.4662786,26.3707248 C46.4590384,26.3569635 46.4519263,26.3483789 46.4497905,26.3386726 C46.374697,25.9970344 46.1773523,25.9089448 45.8727709,25.8894245 C45.6976382,25.8782299 45.5237015,25.8931991 45.3660607,25.9834888 C45.1599166,26.1015383 45.1541074,26.3346392 45.3699478,26.4360371 C45.5448669,26.5182598 45.7393283,26.5585946 45.9258019,26.6151281 C46.1905514,26.6954095 46.4647195,26.7519646 46.7189823,26.8576117 C47.1028647,27.0170745 47.2904489,27.3287528 47.2791935,27.7503274 C47.2682797,28.1593054 47.0592738,28.4450141 46.6953394,28.599667 C46.5119199,28.6775973 46.3065875,28.7029414 46.111165,28.752055 L45.5985814,28.752055 Z"
                      id="Fill-18" fill="#000000"/>
                <path d="M16.7443971,28.752055 C16.6167851,28.7237775 16.4865248,28.7042571 16.3620311,28.665691 C15.8823169,28.5171207 15.6306811,28.1716 15.5491163,27.6845837 C15.5467669,27.6706067 15.5474717,27.655918 15.548561,27.6416821 C15.5490522,27.6351682 15.5539431,27.6289777 15.5606707,27.6141811 C15.7814021,27.5931509 16.0066185,27.5717109 16.238114,27.5496669 C16.2515266,27.5954588 16.2625472,27.6360525 16.275255,27.6761069 C16.3596177,27.94236 16.5339175,28.1126076 16.8090467,28.1577093 C17.0475049,28.1968362 17.2852155,28.1919831 17.5016966,28.0604311 C17.6396457,27.9766123 17.7246491,27.8582608 17.7039749,27.6876035 C17.6848598,27.529823 17.5721982,27.4517201 17.4363849,27.4136501 C17.1389797,27.3302626 16.8381358,27.2594502 16.5400898,27.1782629 C16.3264706,27.1201117 16.1191092,27.0449422 15.9519856,26.8888658 C15.5005703,26.4672049 15.5863213,25.8025644 16.1296385,25.5108378 C16.4292223,25.3499945 16.7539867,25.3292447 17.0834498,25.3386059 C17.3785484,25.3469964 17.663908,25.3982238 17.9168039,25.5639202 C18.1875975,25.7413503 18.3195878,25.9979403 18.3324238,26.3361275 C18.0911891,26.3478612 17.8552725,26.3593146 17.6247167,26.3705307 C17.6143155,26.3581283 17.6068617,26.3533183 17.6057511,26.347322 C17.5537239,26.0635545 17.3788474,25.9089017 17.100066,25.8996268 C16.9291835,25.8939541 16.7539867,25.9177236 16.5862651,25.9541759 C16.4688407,25.9797141 16.3702538,26.0662938 16.3673705,26.202246 C16.3644018,26.3425983 16.4599559,26.4275171 16.5816091,26.4669892 C16.7804915,26.5314602 16.9847774,26.5787836 17.18492,26.6395878 C17.4289952,26.7137004 17.6804174,26.7731673 17.9119771,26.8768947 C18.2675392,27.036185 18.4364355,27.3347491 18.4343638,27.7288874 C18.4323348,28.1202863 18.2453059,28.4039243 17.9082395,28.5729424 C17.7463912,28.6540866 17.5575682,28.6805523 17.3806842,28.730766 C17.3472381,28.7402565 17.3124892,28.7450881 17.2783383,28.752055 L16.7443971,28.752055 Z"
                      id="Fill-20" fill="#000000"/>
                <path d="M8.28676795,28.752055 C8.15832305,28.7267109 8.02765695,28.7095201 7.90183904,28.6745776 C7.42812638,28.5430041 7.17687499,28.2401045 7.13362575,27.7456252 C7.11581347,27.5420098 7.10720634,27.3370355 7.10579673,27.1326004 C7.10203779,26.5971392 7.10455799,26.0616133 7.10457935,25.5261089 C7.1046007,25.4870467 7.1046007,25.4479845 7.1046007,25.4010278 L7.82452435,25.4010278 L7.82452435,25.5313935 C7.82450299,26.0309415 7.82330696,26.5305112 7.82510101,27.0300593 C7.82576309,27.209517 7.83157237,27.3890394 7.83866311,27.5683676 C7.85175535,27.8997173 8.01548309,28.0966678 8.33740694,28.1568896 C8.52067693,28.1911635 8.7061254,28.1909693 8.88503843,28.1260022 C9.06679202,28.0599782 9.18665115,27.9367088 9.20621476,27.7358543 C9.22219028,27.5717109 9.23767458,27.406791 9.23882789,27.2421084 C9.24273634,26.674293 9.24030157,26.1064346 9.24028021,25.5385976 C9.24025885,25.4958686 9.24028021,25.4531611 9.24028021,25.401718 L9.95467222,25.401718 C9.95661577,25.4387743 9.96007571,25.4735442 9.95999028,25.5082926 C9.95870882,26.158762 9.96003299,26.809253 9.95326262,27.4596577 C9.95159672,27.6204578 9.93149917,27.7823364 9.90582728,27.941411 C9.84216013,28.3358081 9.57824365,28.5474042 9.22524442,28.6632752 C9.09468511,28.7061337 8.95579632,28.7232167 8.82070919,28.752055 L8.28676795,28.752055 Z"
                      id="Fill-22" fill="#000000"/>
                <path d="M49.841161,14.3965012 C49.3715063,14.2452348 48.9408079,14.0598886 48.5254871,13.8389098 C47.3863768,13.2328734 46.4160775,12.423351 45.6230679,11.3956106 C45.1458099,10.7770424 44.7573356,10.1084115 44.4484613,9.39036508 C44.4060236,9.29170649 44.3994882,9.19626175 44.4017308,9.08968718 C44.4249465,7.99171673 44.6362591,6.93142808 45.043699,5.91544305 C45.2099256,5.50092168 45.425467,5.10656772 45.6186896,4.7030899 C45.6351991,4.66860037 45.6525201,4.6344991 45.6771669,4.58465214 C45.6225981,4.57882839 45.5820613,4.57073985 45.5415244,4.57071828 C44.6445032,4.56996335 43.7475032,4.56989864 42.8505033,4.57024375 C42.7193887,4.57028689 42.7129814,4.57779306 42.7129601,4.7234083 C42.7127892,6.56397121 42.7128746,8.40451255 42.7128319,10.2450755 C42.7128319,10.4150642 42.712597,10.4152367 42.543957,10.4152583 C41.1735434,10.4153014 39.8031085,10.4153014 38.4326949,10.4152367 C38.282273,10.4152152 38.2821662,10.4149348 38.2821662,10.2614467 C38.2821448,8.41370113 38.2821662,6.5659556 38.2821235,4.71821007 C38.2821235,4.57110653 38.2819526,4.57028689 38.1352042,4.57026532 C37.0815673,4.57002806 36.0279517,4.56935941 34.9743362,4.57207716 C34.9095584,4.57224971 34.8374764,4.58661495 34.7812203,4.61745924 C33.4883991,5.32618769 32.1973292,6.03815156 30.9058321,6.74933892 C30.8686912,6.76978675 30.8305464,6.78835803 30.7791386,6.81491 C30.7569052,6.7626257 30.7362951,6.71502196 30.7163471,6.66713781 C30.3068355,5.6838089 29.6820602,4.89576965 28.7097532,4.42857571 C28.2890075,4.22640541 27.8433588,4.12082304 27.3771427,4.08564329 C26.5798189,4.02550771 25.8285422,4.17478976 25.1270289,4.56107675 C24.4651553,4.92553547 23.9551346,5.45344735 23.5539739,6.0922477 C23.1002307,6.81478059 22.8315941,7.6069396 22.6953964,8.44797496 C22.6228872,8.8957564 22.5946951,9.34657913 22.6120802,9.79962352 C22.6197476,9.99950746 22.6420877,10.1987875 22.6586185,10.4090894 C22.6126355,10.4115483 22.5747471,10.4153661 22.5368372,10.4153661 C19.7212369,10.4155387 16.905658,10.4147838 14.0900578,10.4176094 C13.9770972,10.4177388 13.9246428,10.3882965 13.887096,10.2730726 C13.4478973,8.92513397 13.0019496,7.57946015 12.5577746,6.23318238 C12.5566426,6.22977441 12.5554679,6.22628016 12.5536098,6.22326044 C12.5325085,6.18896504 12.5112576,6.15477749 12.4900495,6.1205468 C12.4673463,6.15326763 12.4356729,6.18286089 12.4233282,6.21918382 C12.2860625,6.62257536 12.1516802,7.02700224 12.0167212,7.43119186 C11.6958439,8.39206699 11.3741977,9.35266171 11.0558619,10.3143781 C11.0296561,10.393581 10.9896959,10.4169191 10.9099678,10.4167897 C9.4576904,10.4146975 8.0053916,10.415323 6.5530928,10.4149563 C6.51862156,10.4149563 6.48412895,10.4100816 6.43308417,10.4061991 C6.45597957,10.3411889 6.47321519,10.2885163 6.49290695,10.2368144 C7.19999464,8.38024694 7.90759493,6.52387363 8.61446905,4.6672415 C9.09475987,3.4056669 9.57458082,2.14391974 10.0526077,0.881460788 C10.0795611,0.810281657 10.115207,0.783966948 10.192778,0.784096365 C11.7375981,0.786512141 13.2824396,0.786490572 14.8272811,0.784161073 C14.9042327,0.784053226 14.9394728,0.808901213 14.966234,0.881050969 C15.3619912,1.94822027 15.7605677,3.01433266 16.1585034,4.08070389 C16.7543604,5.67744592 17.3502175,7.27418795 17.9464376,8.87080057 C17.9569883,8.89905653 17.9722377,8.92556536 18.005278,8.95008981 C18.0145258,8.85617649 18.0264861,8.7624573 18.0325944,8.66834986 C18.1030319,7.58355834 18.3313879,6.53524073 18.7416256,5.52881095 C19.1721531,4.47259893 19.7855021,3.53956994 20.5936329,2.73966749 C21.3126381,2.0280056 22.1400762,1.47804975 23.0592667,1.06568532 C23.8294876,0.720142994 24.6342225,0.49407376 25.4639244,0.35773337 C26.2524275,0.228144213 27.0484057,0.196113604 27.8448965,0.227993227 C28.8011639,0.266257402 29.7454283,0.392309172 30.66039,0.695079312 C31.9818519,1.13237801 33.0837784,1.88478456 33.9155307,3.01769749 C34.1371804,3.31960486 34.3259607,3.64612294 34.5297767,3.96138178 C34.5467774,3.98767492 34.5633082,4.01427003 34.6021578,4.03939842 C34.6043363,3.99986165 34.6083942,3.96034645 34.6084156,3.92080968 C34.6087573,2.91785258 34.6099106,1.91489549 34.6066429,0.911938398 C34.6063439,0.81472496 34.6294315,0.783600268 34.7306668,0.783664976 C38.5749582,0.786296447 42.4192497,0.786339586 46.2635625,0.783621837 C46.3667413,0.783535559 46.3882271,0.819060416 46.3879067,0.913879647 C46.3849807,1.72989446 46.3860059,2.54593084 46.3863903,3.36194565 C46.3864117,3.40663752 46.3914521,3.45132939 46.4071713,3.50451961 C47.7481327,1.87428025 49.4203512,0.785390531 51.4699807,0.269255554 C49.6964629,2.20524164 48.6192471,4.45266877 48.3203468,7.06336831 C48.0220659,9.66841665 48.5534442,12.1026998 49.841161,14.3965012"
                      id="Fill-24" fill="#000000"/>
                <path d="M59.1548901,10.1988241 C59.1658466,10.886242 59.0941917,11.5663478 58.9770877,12.2420534 C58.9685446,12.2911886 58.9407156,12.345673 58.9051338,12.3800115 C58.2997939,12.9640039 57.625298,13.4509339 56.8825644,13.8417505 C56.150595,14.2268943 55.3799256,14.5019477 54.5719017,14.6687226 C54.1055574,14.7649654 53.6339378,14.816581 53.1577263,14.8389485 C52.3540593,14.8766735 51.5636554,14.7911291 50.7802141,14.6165245 C50.6985425,14.5983415 50.6444649,14.561695 50.5983537,14.4879707 C50.1158844,13.7169713 49.7311264,12.8991878 49.4447416,12.034879 C49.2293498,11.3846684 49.0597914,10.7215162 48.9828398,10.0395123 C48.9290398,9.56289251 48.8851499,9.08336086 48.8721431,8.60413119 C48.8267581,6.93668455 49.1596811,5.34345834 49.8278124,3.81925431 C50.2038139,2.96145951 50.6684495,2.15571175 51.2535423,1.42841201 C51.6070541,0.988977944 51.9965749,0.577929247 52.3875908,0.171453271 C52.4598437,0.0963269336 52.6174418,0.106939095 52.7342468,0.0730103758 C52.9274267,0.016908279 53.0839356,0.103509555 53.2449723,0.191922663 C54.2585209,0.748392481 55.1729059,1.4384418 55.9760603,2.27430049 C57.1084429,3.45276807 57.9541417,4.81390718 58.5029906,6.36201013 C58.7718834,7.12056398 58.9635897,7.89859502 59.0610019,8.69700917 C59.1217217,9.19448659 59.1422891,9.69698968 59.1808824,10.197228 C59.1722326,10.1977672 59.16354,10.1983065 59.1548901,10.1988241"
                      id="Fill-26" fill="#000000"/>
                <path d="M38.2812713,14.5510268 C38.2812713,13.4332556 38.2823819,12.3154628 38.2793064,11.1976917 C38.2790501,11.1017292 38.3001728,11.068728 38.4018566,11.0689653 C39.7969169,11.0723517 41.1919986,11.0721575 42.5870589,11.0692888 C42.6833819,11.0690947 42.7145213,11.094029 42.7143932,11.1947798 C42.7117235,13.4375263 42.7117875,15.6802729 42.7140087,17.9230195 C42.7141155,18.0189388 42.6908998,18.0531479 42.5898781,18.0529106 C41.1948178,18.0498262 39.7997575,18.0499772 38.4046758,18.0527165 C38.3077548,18.0529106 38.2787084,18.0265959 38.2790288,17.9259314 C38.2826169,16.8009775 38.2812927,15.6760022 38.2812713,14.5510268"
                      id="Fill-28" fill="#000000"/>
                <path d="M44.508173,10.9975144 C44.7258929,11.31053 44.9158478,11.6102588 45.1317096,11.8895183 C46.4123783,13.5461802 48.0476267,14.6807756 50.0539002,15.2526028 C50.3363552,15.3330999 50.5498889,15.4514083 50.7367897,15.6969116 C51.7031806,16.9662512 52.8926309,17.9803812 54.2797675,18.7570534 C54.3075751,18.772605 54.3347848,18.7893213 54.3638098,18.8064258 C54.0446625,18.9860992 51.99719,18.7846191 50.9779176,18.4728545 C49.8633687,18.1319281 48.8459116,17.6007808 47.93048,16.8730497 C47.017526,16.1472382 46.2641989,15.2792626 45.673126,14.2687778 C45.0833345,13.2604499 44.6983415,12.1775134 44.508173,10.9975144"
                      id="Fill-30" fill="#000000"/>
                <path d="M31.5126371,8.42143162 L35.7626171,8.42143162 C35.9151535,8.42143162 35.9205356,8.42169045 35.9132526,8.5805709 C35.8888195,9.11443595 35.8631049,9.64825786 35.8318586,10.1817562 C35.818147,10.4157414 35.8115475,10.4153101 35.5816324,10.4153101 L27.2738912,10.4153101 C27.1099499,10.4152885 27.1099072,10.4152022 27.1099072,10.2531295 C27.1099499,9.68876526 27.1099499,9.12437946 27.1100781,8.56001523 C27.1101208,8.4215826 27.1102916,8.42145318 27.2519783,8.42145318 C28.6721979,8.42143162 30.0924175,8.42143162 31.5126371,8.42143162"
                      id="Fill-32" fill="#000000"/>
                <path d="M58.6504417,13.5694687 C58.3109191,14.6524269 57.8427167,15.6347636 57.2330199,16.5484879 C56.7255835,17.3089614 56.1334213,17.994891 55.4655249,18.6157887 C55.3825291,18.6929426 55.3206774,18.7057764 55.2180111,18.6545706 C54.3591133,18.2261585 53.5607643,17.7055155 52.8309948,17.0782979 C52.2930811,16.6159571 51.8002319,16.1092048 51.3583208,15.5523252 C51.3477701,15.5390169 51.337668,15.5253418 51.3238923,15.5073098 C54.0272154,15.8865867 56.4591896,15.247355 58.6504417,13.5694687"
                      id="Fill-34" fill="#000000"/>
                <path d="M21.8077875,26.1741496 C21.6869245,26.6119229 21.5658053,27.0496529 21.4452841,27.4875556 C21.3435789,27.8571263 21.2405283,28.226395 21.1429025,28.5970657 C21.1227836,28.6734646 21.089188,28.6991754 21.0112539,28.6969106 C20.8195477,28.691281 20.6275638,28.6950556 20.4256485,28.6950556 C20.1937685,27.8576439 19.962871,27.0238559 19.7319948,26.1900463 C19.7248827,26.1903698 19.7177706,26.1906934 19.7106585,26.1909954 L19.7106585,28.6883475 L19.040071,28.6883475 C19.038277,28.6469126 19.0354364,28.6118192 19.0354151,28.5767473 C19.0352015,27.5561032 19.0367606,26.5354808 19.0329589,25.5148799 C19.0325959,25.4136761 19.0618772,25.3889575 19.1583497,25.3907694 C19.4745924,25.396701 19.791006,25.392991 20.1132075,25.392991 C20.3292401,26.1374385 20.5436068,26.8760621 20.7579308,27.6146643 L20.7767469,27.6149231 C20.8560265,27.3382735 20.9356051,27.0616887 21.0145216,26.7849529 C21.1373281,26.3542975 21.2611171,25.9238795 21.380848,25.4923614 C21.4012019,25.4189606 21.4308249,25.3893027 21.5113646,25.3906184 C21.8343777,25.3958382 22.157519,25.3927538 22.4888829,25.3927538 L22.4888829,28.6851121 L21.8310459,28.6851121 L21.8310459,26.1754869 C21.8232931,26.1750556 21.8155403,26.1746026 21.8077875,26.1741496"
                      id="Fill-36" fill="#000000"/>
                <path d="M30.7798562,21.8240112 C31.1360804,21.8240112 31.4805579,21.8344508 31.8239889,21.8198483 C32.0107829,21.8118891 32.1370066,21.6871315 32.163661,21.5419045 C32.2053511,21.3147784 32.0615714,21.1275557 31.8247364,21.1193378 C31.494419,21.1078844 31.1636958,21.1078628 30.8331221,21.1036784 C30.8162923,21.1034627 30.7993984,21.1100198 30.7798562,21.1139886 L30.7798562,21.8240112 Z M30.7819706,23.2919405 C31.1843273,23.2777479 31.5806185,23.2658415 31.9765893,23.2472487 C32.0260109,23.2449407 32.078145,23.2140965 32.1215437,23.1851071 C32.2637643,23.0900722 32.323224,22.9236209 32.2834347,22.750483 C32.2461656,22.5881731 32.1061876,22.4609565 31.9168093,22.4368851 C31.7657253,22.4176667 31.6126336,22.4101821 31.4602254,22.4069251 C31.2346246,22.4021151 31.0088529,22.4056957 30.7819706,22.4056957 L30.7819706,23.2919405 Z M32.4053869,22.072944 C32.5106374,22.128852 32.6206293,22.1731556 32.7150728,22.2398698 C33.1107019,22.5194097 33.1544851,23.115028 32.817739,23.4927951 C32.5900451,23.7482203 32.2960143,23.8297312 31.9731935,23.8329019 C31.3471581,23.8390277 30.7211013,23.8386825 30.0950659,23.8407963 C30.0846006,23.8408395 30.0741354,23.8376903 30.0556396,23.8348 L30.0556396,20.5474027 C30.0607014,20.5428084 30.0633925,20.5382572 30.0659981,20.5383004 C30.7552522,20.5508322 31.4447625,20.5557285 32.1335681,20.5808353 C32.3734572,20.5895925 32.5728522,20.7198934 32.7205617,20.9142556 C32.9967161,21.2776574 32.8925976,21.7863725 32.4970966,22.0215872 C32.4667047,22.0396839 32.4353944,22.0562061 32.4053869,22.072944 L32.4053869,22.072944 Z"
                      id="Fill-38" fill="#000000"/>
                <path d="M29.2202266,26.7988004 C29.6013325,26.7849744 29.9738099,26.7849744 30.3436176,26.7531379 C30.5711193,26.7335313 30.6855536,26.5528442 30.6688946,26.3143725 C30.6559733,26.1293931 30.5004041,25.9786443 30.2938116,25.972044 C29.9496117,25.9610436 29.6050701,25.9610436 29.260678,25.9571611 C29.2478207,25.9570317 29.2348993,25.9648614 29.2202266,25.969542 L29.2202266,26.7988004 Z M30.4922455,27.248178 C30.9893875,27.5267041 31.2229548,28.0271797 31.537318,28.4571663 C31.5876794,28.5260375 31.6330216,28.5986618 31.6909649,28.6847886 C31.6498088,28.689124 31.6211468,28.6946458 31.5924848,28.6947105 C31.3682722,28.6954007 31.1440169,28.6926183 30.9198684,28.6964792 C30.8523568,28.697644 30.8104104,28.6766785 30.7698309,28.6207058 C30.5324406,28.2933465 30.2805058,27.9762758 30.0533885,27.6419496 C29.8456213,27.3360735 29.5578056,27.2892678 29.2200985,27.3231965 L29.2200985,28.6866651 L28.4970993,28.6866651 L28.4970993,25.4053072 C28.5120283,25.4015541 28.5284097,25.3937675 28.5447269,25.3938754 C29.1815479,25.3981246 29.8185185,25.3969382 30.4551473,25.4105701 C30.7622916,25.4171272 31.0449815,25.5037932 31.2443979,25.7675442 C31.5906267,26.2254849 31.4259165,26.8868469 30.9030385,27.1144475 C30.7773915,27.1691476 30.6417277,27.2002939 30.4922455,27.248178 L30.4922455,27.248178 Z"
                      id="Fill-40" fill="#000000"/>
                <path d="M11.4697241,25.9556966 L11.4697241,26.7768665 C11.4886683,26.7806843 11.502145,26.7859688 11.5155149,26.7857099 C11.8532861,26.7795195 12.1913563,26.7789803 12.5287858,26.7640111 C12.7750182,26.7530538 12.9221083,26.5889967 12.9185416,26.3552056 C12.9151243,26.1317679 12.7617124,25.9797681 12.5158644,25.9709462 C12.2315728,25.9607222 11.9469607,25.9601614 11.6624555,25.955826 C11.5994291,25.9548769 11.5363813,25.9556966 11.4697241,25.9556966 L11.4697241,25.9556966 Z M10.7463405,25.4092134 C10.7581085,25.4008229 10.7610132,25.3969188 10.7638965,25.396962 C11.4678873,25.4074016 12.1747401,25.3820359 12.8751642,25.4383106 C13.6764605,25.5026738 13.8253019,26.3564998 13.529947,26.8036773 C13.3600042,27.0610222 13.0966217,27.1631319 12.8103224,27.2202478 C12.7902035,27.2242597 12.7699137,27.2274519 12.7501151,27.2309462 C12.7512044,27.2428741 12.7495385,27.2535078 12.7527635,27.2553197 C13.030477,27.4117843 13.2303419,27.6476245 13.4073541,27.9072558 C13.5706547,28.1467628 13.7350872,28.3854933 13.8984946,28.6249571 C13.9097714,28.6414793 13.9165845,28.6610859 13.9326882,28.6939793 C13.6458977,28.6939793 13.3731605,28.6962225 13.1005942,28.6906576 C13.0721031,28.6900752 13.0395113,28.6472383 13.0173421,28.6174941 C12.7670731,28.281809 12.512554,27.9490789 12.2712553,27.6069014 C12.0674179,27.3178494 11.7835961,27.294878 11.4630605,27.3237163 L11.4630605,28.6883713 L10.7463405,28.6883713 L10.7463405,25.4092134 Z"
                      id="Fill-42" fill="#000000"/>
                <path d="M62.2954663,28.6941303 C62.0642484,28.6941303 61.8374088,28.6967186 61.6107827,28.6908302 C61.5824839,28.6900968 61.5488242,28.6488345 61.5285772,28.618853 C61.0900833,27.9692463 60.6532125,27.3185397 60.2158506,26.6681565 C60.1981451,26.6418418 60.178731,26.6166919 60.141227,26.5649468 L60.141227,28.6883497 L59.472284,28.6883497 L59.472284,25.39295 C59.6207411,25.39295 59.7703727,25.4077682 59.9159251,25.3893048 C60.1079731,25.3649098 60.2125402,25.4450834 60.3149287,25.6040501 C60.7199552,26.2328638 61.1405087,26.8514536 61.5555946,27.4736239 C61.5743252,27.5017073 61.5961314,27.5276769 61.6334219,27.5770278 L61.6334219,25.4008229 L62.2954663,25.4008229 L62.2954663,28.6941303 Z"
                      id="Fill-44" fill="#000000"/>
                <path d="M41.7491363,27.5766891 L41.7491363,25.4006352 L42.4118215,25.4006352 L42.4118215,28.6945034 C42.1833587,28.6945034 41.9599577,28.698084 41.7369411,28.6906857 C41.7029397,28.689564 41.6623389,28.6433192 41.6386959,28.6083336 C41.1999885,27.9589642 40.7634167,27.3081065 40.326247,26.6576587 C40.3104637,26.6341264 40.293399,26.6114785 40.258586,26.5627532 L40.258586,28.6869326 L39.589579,28.6869326 L39.589579,25.4014764 C39.6165964,25.398845 39.6467961,25.3935389 39.6769958,25.3933232 C39.8122538,25.3923957 39.9488146,25.4049923 40.0823427,25.3898074 C40.2382535,25.3720557 40.3218901,25.4373033 40.4052063,25.5654688 C40.814846,26.195512 41.2354208,26.8182647 41.6524716,27.44339 C41.6772892,27.4805973 41.704926,27.5159065 41.7491363,27.5766891"
                      id="Fill-46" fill="#000000"/>
                <path d="M44.1008335,22.6297072 L43.2779874,22.6297072 L43.2779874,22.0724608 L44.824153,22.0724608 L44.824153,22.1871887 C44.8242171,22.5536965 44.8222095,22.9202259 44.8259898,23.2866905 C44.82678,23.3635424 44.8031798,23.4134541 44.7406873,23.4562047 C44.32904,23.73788 43.8713029,23.8753851 43.3785819,23.8977742 C43.0668029,23.9119237 42.7607051,23.8728183 42.4697285,23.7516628 C41.8987744,23.5138814 41.5834074,23.073261 41.5010736,22.4646579 C41.4471883,22.066292 41.4864009,21.6745695 41.6856037,21.3155894 C41.9762386,20.7918836 42.4378629,20.5402114 43.0163775,20.4924998 C43.3584416,20.464287 43.6996301,20.4787601 44.0264235,20.6018353 C44.4204507,20.750233 44.6763367,21.0252217 44.7772516,21.460536 C44.5382595,21.5025748 44.3060378,21.5434489 44.0668749,21.5855093 C43.9700606,21.3113187 43.7795931,21.1511441 43.5076034,21.0852279 C43.0798738,20.981522 42.6044952,21.1471106 42.3971125,21.4734992 C42.1555361,21.8536389 42.1786664,22.5745326 42.4429673,22.9402207 C42.6564584,23.2356573 42.9561489,23.3338198 43.3018866,23.3215467 C43.5670631,23.3121425 43.8115655,23.2289707 44.0329162,23.0829672 C44.0666186,23.0607507 44.0941913,23.0065252 44.0977794,22.9647452 C44.1068991,22.8584726 44.1008335,22.7509058 44.1008335,22.6297072"
                      id="Fill-48" fill="#000000"/>
                <path d="M21.7180277,22.6310337 L20.9009694,22.6310337 L20.9009694,22.0717814 L22.4468788,22.0717814 L22.4468788,22.5890164 C22.4468788,22.8190113 22.4420947,23.0491787 22.4493136,23.2789579 C22.4520901,23.36722 22.4184945,23.4171964 22.3513888,23.4638079 C22.0284825,23.6881516 21.667346,23.8129092 21.2845742,23.8719879 C20.8886888,23.9330941 20.4959003,23.9084618 20.1180834,23.764076 C19.5064644,23.5303065 19.1263196,22.9668051 19.1062434,22.2906033 C19.0923396,21.821727 19.1885345,21.3925815 19.5034316,21.0307327 C19.7943655,20.6964065 20.1706233,20.5373966 20.5987373,20.4963068 C20.9477,20.4628311 21.2955306,20.4751688 21.6310593,20.5964106 C22.035979,20.742716 22.2955385,21.0217167 22.3987387,21.4605468 C22.161925,21.5022621 21.9318391,21.5428126 21.6915655,21.5851318 C21.6875717,21.577712 21.6815702,21.5688685 21.6777471,21.5591407 C21.5386448,21.2053588 21.2568733,21.0627633 20.9043653,21.058018 C20.4992534,21.0525825 20.1355753,21.1778578 19.9658888,21.5817454 C19.7708721,22.0459844 19.7867195,22.5211374 20.0752186,22.9483632 C20.3110284,23.2975723 20.6779956,23.3696358 21.0623905,23.3033529 C21.2639854,23.2686046 21.4552218,23.1670341 21.6472271,23.0861703 C21.6807799,23.0720208 21.7112146,23.0122734 21.7148667,22.9710542 C21.7243068,22.864264 21.7180277,22.756007 21.7180277,22.6310337"
                      id="Fill-50" fill="#000000"/>
                <path d="M28.7519217,22.1840783 C28.7453009,22.182741 28.73868,22.1813822 28.7320378,22.1800449 C28.7291758,22.1155091 28.7276381,22.0508871 28.7231957,21.9864808 C28.6846024,21.4284148 28.3427519,21.0857844 27.7951204,21.0556303 C27.3489377,21.0310196 26.9684299,21.2722521 26.839152,21.6777359 C26.7294805,22.0218546 26.7295659,22.3717971 26.8484212,22.7144923 C26.9792795,23.0916985 27.3306556,23.3226425 27.7532594,23.3222542 C28.1769525,23.3218228 28.5198709,23.0996361 28.6455393,22.7185258 C28.7019448,22.547437 28.7177068,22.3626517 28.7519217,22.1840783 M27.7408506,20.4753047 C28.1113845,20.4805461 28.4615218,20.5534939 28.7785334,20.7562681 C29.1343304,20.9838256 29.3500427,21.3082515 29.4328036,21.7232258 C29.5041381,22.0807823 29.5005714,22.4379506 29.3992721,22.7891441 C29.2244597,23.3951373 28.7224268,23.8079979 28.0903685,23.8787025 C27.762016,23.9154568 27.4374866,23.9084683 27.1177839,23.8161727 C26.5149856,23.6421505 26.0983406,23.1330472 26.0330289,22.5018392 C26.002402,22.2056909 26.0098131,21.912627 26.0857396,21.6254516 C26.2463491,21.0179485 26.7290747,20.5947778 27.3484038,20.5120374 C27.478536,20.494674 27.6099923,20.4872973 27.7408506,20.4753047"
                      id="Fill-52" fill="#000000"/>
                <path d="M48.0742341,22.1782438 C48.0698771,22.1774889 48.0655202,22.176734 48.0611632,22.1760006 C48.0581304,22.1114433 48.0566354,22.0467781 48.0518299,21.9823934 C48.0105029,21.4277785 47.674547,21.0902169 47.1308881,21.0561803 C46.6235585,21.0244301 46.2330979,21.3238786 46.1283173,21.8266405 C46.0755639,22.0797578 46.0796432,22.3332418 46.1366041,22.5848708 C46.2350842,23.0197537 46.5932093,23.3094528 47.0434072,23.3221356 C47.5156034,23.3354224 47.881759,23.0817443 48.0001871,22.6439279 C48.0409589,22.4931575 48.050463,22.3337163 48.0742341,22.1782438 M47.0706382,20.4750998 C47.4074269,20.480147 47.7292653,20.5404336 48.0259231,20.7073594 C48.3993402,20.9174026 48.6445901,21.2287789 48.7445866,21.6506986 C48.8400553,22.0536803 48.8393719,22.4569425 48.7081505,22.8511239 C48.5506592,23.3241847 48.2322593,23.646281 47.7602126,23.7968788 C47.2782345,23.9506473 46.7901909,23.9500865 46.316286,23.7693131 C45.7420856,23.5502324 45.4458763,23.1027529 45.3639698,22.5009657 C45.3238601,22.2063704 45.3341118,21.9106966 45.4161678,21.625182 C45.600164,20.9848286 46.0307556,20.6193561 46.6783622,20.512609 C46.8077041,20.4912984 46.9398226,20.4871571 47.0706382,20.4750998"
                      id="Fill-54" fill="#000000"/>
                <polygon id="Fill-56" fill="#000000"
                         points="15.2508524 23.2779894 17.2270543 23.2779894 17.2270543 23.8349338 14.5267854 23.8349338 14.5267854 20.5411087 17.1648182 20.5411087 17.1648182 21.0987433 15.252796 21.0987433 15.252796 21.8165956 17.0382527 21.8165956 17.0382527 22.3822109 15.2508524 22.3822109"/>
                <polygon id="Fill-58" fill="#000000"
                         points="13.0492418 22.3976459 11.6430328 22.3976459 11.6430328 23.8362409 10.9214647 23.8362409 10.9214647 20.5428256 11.6387827 20.5428256 11.6387827 21.8213322 13.0462304 21.8213322 13.0462304 20.5403451 13.7725614 20.5403451 13.7725614 23.8345153 13.0492418 23.8345153"/>
                <path d="M49.2898667,26.1713068 C49.1260962,26.5948442 48.974585,26.9867177 48.8212798,27.383207 L49.7854709,27.383207 C49.6210811,26.9812174 49.4609841,26.5897107 49.2898667,26.1713068 M51.1058862,28.6946933 C50.8497012,28.6946933 50.6083384,28.696958 50.3671678,28.6914147 C50.3413678,28.6908323 50.306149,28.6492249 50.2930995,28.6188767 C50.2125385,28.4315246 50.1345403,28.2429646 50.0613263,28.0525928 C50.0349282,27.9838941 50.0027423,27.9536322 49.92342,27.9545597 C49.5144423,27.9593697 49.1053152,27.9593913 48.6963376,27.9544519 C48.6171861,27.9535028 48.58547,27.9836569 48.5602466,28.0521398 C48.4897877,28.243547 48.4152282,28.4335306 48.337465,28.6220258 C48.3252484,28.6516838 48.288321,28.6909617 48.2620725,28.6915657 C48.0244259,28.696958 47.7866299,28.6947148 47.5299963,28.6947148 C47.5671587,28.5985799 47.5971021,28.516465 47.63042,28.4357091 C48.0371124,27.449835 48.4447658,26.4643491 48.8501981,25.4779358 C48.875272,25.4169374 48.9049377,25.3894364 48.974286,25.3910325 C49.1840395,25.3959072 49.3939852,25.3950229 49.6037814,25.391658 C49.6653982,25.3906874 49.6985026,25.409496 49.7238114,25.4685315 C50.1748849,26.521163 50.6281583,27.5728239 51.080791,28.6247651 C51.0877109,28.6408128 51.0927085,28.6577232 51.1058862,28.6946933"
                      id="Fill-60" fill="#000000"/>
                <path d="M37.863253,27.3869256 C37.6957022,26.9778397 37.5351568,26.5857505 37.365513,26.1715095 C37.2033871,26.5915958 37.051641,26.9848713 36.8964776,27.3869256 L37.863253,27.3869256 Z M39.1856546,28.6938391 C38.9221653,28.6938391 38.6779832,28.6957372 38.4339721,28.6906253 C38.4114184,28.6901723 38.3813041,28.6487806 38.3691089,28.6201579 C38.2849171,28.4226466 38.2072607,28.2222666 38.120271,28.026071 C38.106303,27.9945581 38.0563261,27.9600685 38.0226665,27.9597234 C37.5994006,27.9552154 37.176092,27.9580626 36.7528261,27.9552586 C36.6929606,27.9548487 36.6656655,27.9740455 36.645034,28.0300398 C36.5720549,28.2282413 36.494847,28.4248898 36.415717,28.6206756 C36.4042052,28.6491904 36.3739841,28.6904096 36.3517081,28.6908625 C36.1074834,28.6959313 35.8631518,28.6940332 35.6042544,28.6940332 C35.6508782,28.5767818 35.6904753,28.4739819 35.732443,28.3722388 C36.1255519,27.4192797 36.5203908,26.4670755 36.910296,25.5128222 C36.9490175,25.4180245 36.9984177,25.3855841 37.0982006,25.3905019 C37.2720733,25.3991081 37.4470992,25.4002513 37.6208223,25.3902647 C37.7292337,25.3840311 37.7816881,25.4191677 37.8251723,25.5216872 C38.2150989,26.4410627 38.6111552,27.3577637 39.0054387,28.2752627 C39.0628908,28.4089716 39.1205351,28.5426158 39.1856546,28.6938391 L39.1856546,28.6938391 Z"
                      id="Fill-62" fill="#000000"/>
                <path d="M35.5449271,22.5349181 C35.3791704,22.12965 35.218924,21.7378197 35.0471871,21.3179275 C34.8841215,21.7397825 34.7320764,22.1330149 34.5766995,22.5349181 L35.5449271,22.5349181 Z M36.8596827,23.841314 C36.6113359,23.841314 36.3696741,23.8435141 36.1282046,23.8381864 C36.1016356,23.8376256 36.0645588,23.7988869 36.051851,23.7693152 C35.9670824,23.5719981 35.8857739,23.3730847 35.8075835,23.1730283 C35.7859055,23.1175517 35.756496,23.0990667 35.697378,23.0994549 C35.277508,23.1020864 34.8575739,23.1024746 34.4377039,23.0991529 C34.3722854,23.0986353 34.3444564,23.1230087 34.3230347,23.1809658 C34.2497566,23.3791458 34.1733603,23.576161 34.0942302,23.7720114 C34.0830601,23.799685 34.0503616,23.8377335 34.0269963,23.838208 C33.7856976,23.8430611 33.5442493,23.8412062 33.2832802,23.8412062 C33.3595484,23.6556228 33.4294306,23.4849007 33.4997614,23.3143728 C33.8683517,22.420708 34.2383302,21.527604 34.603546,20.6325372 C34.6365863,20.5515224 34.6777639,20.5295647 34.7597559,20.5320884 C34.9624186,20.5382572 35.1653804,20.5357767 35.3681926,20.5329943 C35.4202198,20.5322609 35.4505691,20.5439516 35.4730373,20.5963869 C35.9298133,21.662564 36.3884902,22.7278999 36.8465264,23.7935377 C36.851759,23.8056813 36.8537239,23.8192916 36.8596827,23.841314 L36.8596827,23.841314 Z"
                      id="Fill-64" fill="#000000"/>
                <polygon id="Fill-66" fill="#000000"
                         points="53.1703679 21.8725424 54.6473775 21.8725424 54.6473775 22.4386969 53.1616539 22.4386969 53.1616539 23.8355334 52.4454038 23.8355334 52.4454038 20.5405436 54.8832086 20.5405436 54.8832086 21.09999 53.1703679 21.09999"/>
                <polygon id="Fill-68" fill="#000000"
                         points="8.65737656 21.1031629 7.60839562 21.1031629 7.60839562 20.5420125 10.4321545 20.5420125 10.4321545 21.1036805 9.37727885 21.1036805 9.37727885 23.835816 8.65737656 23.835816"/>
                <path d="M1.80161383,28.6887573 L1.07707694,28.6887573 L1.07707694,25.9619064 L0.027412543,25.9619064 L0.027412543,25.4000874 L2.84830951,25.4000874 L2.84830951,25.9486628 C2.81144621,25.9509491 2.77417711,25.9551767 2.73688666,25.955263 C2.47000147,25.9558885 2.2030095,25.9605044 1.93633789,25.9532786 C1.83172812,25.950453 1.7978976,25.9741578 1.79864512,26.0878719 C1.80413404,26.9107674 1.80161383,27.733706 1.80161383,28.556623 L1.80161383,28.6887573 Z"
                      id="Fill-70" fill="#000000"/>
                <polygon id="Fill-72" fill="#000000"
                         points="50.8819299 25.3965327 53.7056247 25.3965327 53.7056247 25.9520319 52.6587368 25.9520319 52.6587368 28.6881361 51.9372541 28.6881361 51.9372541 25.9598832 50.8819299 25.9598832"/>
                <polygon id="Fill-74" fill="#000000"
                         points="50.1116983 23.2780951 51.8931185 23.2780951 51.8931185 23.8351257 49.3922018 23.8351257 49.3922018 20.5678742 50.1116983 20.5678742"/>
                <polygon id="Fill-76" fill="#000000"
                         points="37.9852265 23.2804958 39.7767062 23.2804958 39.7767062 23.8334714 37.2742945 23.8334714 37.2742945 20.5685062 37.9852265 20.5685062"/>
                <polygon id="Fill-78" fill="#000000"
                         points="25.6297324 23.8367521 23.1303535 23.8367521 23.1303535 20.5674083 23.8472016 20.5674083 23.8472016 23.2767233 25.6297324 23.2767233"/>
                <mask id="mask-4" fill="white">
                    <use xlink:href="#path-3"/>
                </mask>
                <g id="Clip-81"/>
                <polygon id="Fill-80" fill="#000000" mask="url(#mask-4)"
                         points="14.3114832 28.6899135 15.0297409 28.6899135 15.0297409 25.4002729 14.3114832 25.4002729"/>
                <polygon id="Fill-82" fill="#000000" mask="url(#mask-4)"
                         points="54.1651346 28.6856211 54.8759598 28.6856211 54.8759598 25.3999493 54.1651346 25.3999493"/>
                <polygon id="Fill-83" fill="#000000" mask="url(#mask-4)"
                         points="43.1660519 28.6879722 43.8680779 28.6879722 43.8680779 25.3985042 43.1660519 25.3985042"/>
                <path d="M30.781962,23.2919341 L30.781962,22.4056892 C31.0088443,22.4056892 31.2346161,22.4021087 31.4602169,22.4069402 C31.6126464,22.4101756 31.7657381,22.4176818 31.9168221,22.4368786 C32.106179,22.4609716 32.2461784,22.5881666 32.2834475,22.7504766 C32.3232154,22.923636 32.2637771,23.0900873 32.1215565,23.1851007 C32.0781364,23.2141116 32.0260024,23.2449343 31.9766021,23.2472638 C31.58061,23.2658351 31.1843188,23.277763 30.781962,23.2919341"
                      id="Fill-84" fill="#FFFFFF" mask="url(#mask-4)"/>
                <path d="M30.7798562,21.8240112 L30.7798562,21.1139886 C30.7993984,21.1100198 30.8162923,21.1034627 30.8331221,21.1036784 C31.1636958,21.1078628 31.494419,21.1078844 31.8247364,21.1193378 C32.0615714,21.1275557 32.2053511,21.3147784 32.163661,21.5419045 C32.1370066,21.6871315 32.0107829,21.8118891 31.8239889,21.8198483 C31.4805579,21.8344508 31.1360804,21.8240112 30.7798562,21.8240112"
                      id="Fill-85" fill="#FFFFFF" mask="url(#mask-4)"/>
                <path d="M28.7519217,22.1840783 C28.7177068,22.3626517 28.7019448,22.547437 28.6455393,22.7185258 C28.5198709,23.0996361 28.1769525,23.3218228 27.7532594,23.3222542 C27.3306556,23.3226425 26.9792795,23.0916985 26.8484212,22.7144923 C26.7295659,22.3717971 26.7294805,22.0218546 26.839152,21.6777359 C26.9684299,21.2722521 27.3489377,21.0310196 27.7951204,21.0556303 C28.3427519,21.0857844 28.6846024,21.4284148 28.7231957,21.9864808 C28.7276381,22.0508871 28.7291758,22.1155091 28.7320378,22.1800449 C28.73868,22.1813822 28.7453009,22.182741 28.7519217,22.1840783"
                      id="Fill-86" fill="#FFFFFF" mask="url(#mask-4)"/>
                <path d="M35.5449271,22.5349181 L34.5766995,22.5349181 C34.7320764,22.1330149 34.8841215,21.7397825 35.0471871,21.3179275 C35.218924,21.7378197 35.3791704,22.12965 35.5449271,22.5349181"
                      id="Fill-87" fill="#FFFFFF" mask="url(#mask-4)"/>
            </g>
        </g>
    </g>
</svg>