<?xml version="1.0" encoding="utf-8"?>
<svg xmlns="http://www.w3.org/2000/svg" viewBox="0 0 40 40">
    <defs>
        <style>.cls-1{fill:#69ccec;}.cls-2{fill:#fff;}</style>
    </defs>
    <title>twitter</title>
    <g id="Livello_2" data-name="Livello 2">
        <g id="Livello_4" data-name="Livello 4">
            <path class="cls-1" d="M20,40A20,20,0,1,0,0,20,20,20,0,0,0,20,40"/>
            <path class="cls-2"
                  d="M30,14.76a8.22,8.22,0,0,1-2.36.65,4.11,4.11,0,0,0,1.81-2.27,8.21,8.21,0,0,1-2.61,1,4.11,4.11,0,0,0-7,3.75,11.67,11.67,0,0,1-8.47-4.29,4.12,4.12,0,0,0,1.27,5.49,4.11,4.11,0,0,1-1.86-.51v.05a4.11,4.11,0,0,0,3.3,4,4,4,0,0,1-1.08.14,4.07,4.07,0,0,1-.77-.07,4.11,4.11,0,0,0,3.84,2.85A8.31,8.31,0,0,1,10,27.27a11.69,11.69,0,0,0,18-9.85c0-.18,0-.36,0-.53A8.33,8.33,0,0,0,30,14.76"/>
        </g>
    </g>
</svg>