<?xml version="1.0" encoding="utf-8"?>
<svg xmlns:xlink="http://www.w3.org/1999/xlink" xmlns="http://www.w3.org/2000/svg" width="59px" height="30px"
     viewBox="0 0 59 30" version="1.1">

    <title>logo_etoa</title>
    <desc>Created with Sketch.</desc>
    <defs>
        <polygon id="path-1"
                 points="5.29852767 7.03296703 0.279333004 7.03296703 0.279333004 0.0170709291 5.29852767 0.0170709291"/>
    </defs>
    <g id="Page-1" stroke="none" stroke-width="1" fill="none" fill-rule="evenodd">
        <g id="logo_etoa">
            <path d="M30.9967465,4.17093307 C31.0102347,4.16262138 31.0237228,4.15303097 31.0375321,4.14503896 L30.5439303,3.12206194 L31.2051705,4.04625774 C31.2199432,4.03794605 31.2334313,4.02963437 31.2472406,4.02228172 L30.4209313,2.86855544 C30.4125815,2.85832567 30.3990934,2.85512887 30.3884956,2.8612028 C30.3782189,2.8675964 30.374044,2.88102298 30.3791823,2.89253147 L30.9967465,4.17093307"
                  id="Fill-1" fill="#FFD82F" fill-rule="nonzero"/>
            <path d="M33.7571635,3.19267932 L33.7090865,2.05557642 L34.0202753,3.16774426 C34.0412544,3.16646553 34.0626705,3.16582617 34.0853977,3.16454745 L33.6959747,1.77297902 C33.6920411,1.76147053 33.6763068,1.75347852 33.6605726,1.75411788 C33.6435271,1.75635564 33.6308523,1.76690509 33.6308523,1.77937263 L33.6920411,3.19875325 C33.7130201,3.19683516 33.7361844,3.1945974 33.7571635,3.19267932"
                  id="Fill-3" fill="#FFD82F" fill-rule="nonzero"/>
            <path d="M28.6045924,6.70478322 C28.6129422,6.68911888 28.6222554,6.67473327 28.6306052,6.66002797 L27.1751705,4.71828971 L29.4903137,5.4462018 C29.5028384,5.43373427 29.5134363,5.42030769 29.5246764,5.40656144 L27.1189699,4.65083716 C27.108372,4.64764036 27.0980954,4.65083716 27.0919936,4.65882917 C27.0855707,4.66714086 27.0865341,4.67864935 27.092957,4.68792008 L28.6045924,6.70478322"
                  id="Fill-5" fill="#FFD82F" fill-rule="nonzero"/>
            <path d="M27.8826556,8.75619549 L26.7914007,8.42976999 L27.9202297,8.55981476 C27.9231201,8.54405176 27.9276161,8.52796036 27.9305064,8.51186896 L26.5213167,8.35095498 C26.508792,8.34865621 26.4972307,8.3571945 26.4953039,8.37000194 C26.4930558,8.3814958 26.5004422,8.39430324 26.5116823,8.39758719 L27.8743058,8.80512648 C27.8775173,8.78936348 27.8807288,8.77228689 27.8826556,8.75619549"
                  id="Fill-7" fill="#FFD82F" fill-rule="nonzero"/>
            <path d="M40.807379,7.03494905 L41.8735845,6.65069331 L40.8867021,7.21269131 C40.8928039,7.2273966 40.9001902,7.24146254 40.9066131,7.25616783 L42.1394936,6.55414985 C42.149128,6.54903497 42.1542663,6.53560839 42.149128,6.5240999 C42.1436685,6.51259141 42.1311438,6.50747652 42.1186191,6.51163237 L40.785541,6.99147253 C40.7929274,7.00713686 40.7999926,7.02152248 40.807379,7.03494905"
                  id="Fill-9" fill="#FFD82F" fill-rule="nonzero"/>
            <path d="M35.9365539,3.26013187 L37.331292,1.2745974 L37.3550568,3.70033167 C37.370793,3.70768432 37.3865292,3.71503696 37.4022653,3.72334865 L37.3791428,1.19979221 C37.3781793,1.18956244 37.3720776,1.17901299 37.3614797,1.17709491 C37.3512031,1.1738981 37.3406052,1.17709491 37.3354669,1.18636563 L35.884207,3.24958242 C35.9021912,3.25405794 35.9185697,3.25725475 35.9365539,3.26013187"
                  id="Fill-11" fill="#FFD82F" fill-rule="nonzero"/>
            <path d="M39.0683399,4.77423377 L39.8891897,3.98718082 L39.2154249,4.90210589 C39.2279496,4.91329471 39.2391897,4.92384416 39.250751,4.93407393 L40.091833,3.7908971 C40.0998617,3.78162637 40.0979348,3.76692108 40.0886215,3.75988811 C40.0789872,3.75125674 40.065499,3.75125674 40.0561858,3.75988811 L39.0317292,4.74322478 C39.044254,4.75345455 39.0558152,4.76368432 39.0683399,4.77423377"
                  id="Fill-13" fill="#FFD82F" fill-rule="nonzero"/>
            <path d="M29.6061512,14.6648232 L27.3089921,15.4509171 L28.7162549,13.4727353 C28.7079051,13.45803 28.6985919,13.4414066 28.6899209,13.4267013 L27.2274209,15.4832048 C27.2213192,15.4924755 27.2222826,15.5027053 27.2274209,15.511017 C27.2338439,15.5206074 27.2444417,15.5238042 27.2547184,15.5206074 L29.6414773,14.7022258 C29.6302372,14.6897582 29.6177125,14.6772907 29.6061512,14.6648232"
                  id="Fill-15" fill="#FFD82F" fill-rule="nonzero"/>
            <path d="M39.3749061,14.9304775 C39.3633449,14.941986 39.3521047,14.9522158 39.3405435,14.9637243 L40.0374308,15.862985 L39.1976334,15.0967113 C39.1860721,15.1082198 39.1735474,15.1184496 39.1610227,15.1277203 L40.2105287,16.0864416 C40.2198419,16.0947532 40.2336512,16.0947532 40.2429644,16.0851628 C40.2513142,16.0771708 40.2522777,16.0634246 40.2448913,16.0531948 L39.3749061,14.9304775"
                  id="Fill-17" fill="#FFD82F" fill-rule="nonzero"/>
            <path d="M42.2188167,13.2378022 L40.972127,12.569031 C40.9669886,12.5846953 40.9608869,12.5990809 40.9554274,12.6137862 L41.9548345,13.1508492 L40.8773888,12.7934466 C40.8709659,12.8078322 40.8635795,12.8225375 40.8574778,12.8369231 L42.2043651,13.2835165 C42.206292,13.2844755 42.2095035,13.2844755 42.2114303,13.2854346 C42.2262031,13.2835165 42.2364797,13.2742458 42.2364797,13.2617782 C42.2364797,13.2502697 42.2281299,13.240999 42.2188167,13.2378022"
                  id="Fill-19" fill="#FFD82F" fill-rule="nonzero"/>
            <path d="M43.8275346,9.85337862 L41.4166897,9.11108092 C41.4186166,9.12738462 41.4208646,9.14624575 41.4227915,9.16286913 L43.7417885,9.87831369 L41.4427026,10.650022 C41.4404545,10.6676044 41.4394911,10.6855065 41.4385277,10.7027692 L43.8275346,9.90005195 C43.8378113,9.8958961 43.8442342,9.88758442 43.8442342,9.8763956 C43.8442342,9.86584615 43.8368478,9.85657542 43.8275346,9.85337862"
                  id="Fill-21" fill="#FFD82F" fill-rule="nonzero"/>
            <path d="M31.3534758,16.0231449 L30.7160005,16.962046 L31.1855163,15.9262817 C31.1710647,15.9182897 31.1572554,15.909978 31.1437673,15.9026254 L30.5586388,17.1954126 C30.5531793,17.2069211 30.5573542,17.2203477 30.5679521,17.2257822 C30.5782288,17.2318561 30.5930015,17.2286593 30.5991033,17.2193886 L31.3961882,16.0458422 C31.3827001,16.0375305 31.3679274,16.0311369 31.3534758,16.0231449"
                  id="Fill-23" fill="#FFD82F" fill-rule="nonzero"/>
            <path d="M37.5587599,16.1912647 C37.5430237,16.1986174 37.5263241,16.2046913 37.5109091,16.212044 L37.5481621,18.6390569 L36.1033251,16.6886873 C36.0869466,16.6928432 36.0699259,16.696999 36.0532263,16.7011548 L37.554585,18.7282478 C37.5587599,18.7336823 37.5658251,18.7365594 37.5732115,18.7365594 L37.5741749,18.7365594 C37.5866996,18.7352807 37.598582,18.7272887 37.598582,18.7125834 C37.598582,18.7106653 37.598582,18.7077882 37.5972974,18.7055504 L37.5587599,16.1912647"
                  id="Fill-25" fill="#FFD82F" fill-rule="nonzero"/>
            <path d="M27.9588636,11.5969471 L26.8342095,11.7507133 L27.9148666,11.4070569 C27.9119763,11.3913926 27.9078014,11.376048 27.9045899,11.3603836 L26.5544911,11.790034 C26.5419664,11.7932308 26.5349012,11.8056983 26.5381126,11.8181658 C26.541003,11.8296743 26.5525642,11.837027 26.5641255,11.8360679 L27.9691403,11.6436204 C27.9659289,11.6282757 27.9620751,11.6126114 27.9588636,11.5969471"
                  id="Fill-27" fill="#FFD82F" fill-rule="nonzero"/>
            <path d="M34.1922307,16.8288991 L33.9072307,17.9493786 L33.9176853,16.8122757 C33.8940489,16.8113167 33.8717762,16.8081199 33.849958,16.8071608 L33.8363216,18.2268611 C33.8363216,18.239009 33.849958,18.2505175 33.8676853,18.2514765 C33.8854125,18.2524356 33.899958,18.2431648 33.9026853,18.231017 L34.259958,16.8330549 C34.2367762,16.8320959 34.2145035,16.8311369 34.1922307,16.8288991"
                  id="Fill-29" fill="#FFD82F" fill-rule="nonzero"/>
            <path d="M48.9561438,13.6937622 L50.6868009,9.07054545 L50.9610598,8.20549051 L51.2314649,9.05903696 L52.9659758,13.6937622 L48.9561438,13.6937622 Z M55.2772653,19.4767792 L58.6509066,19.4767792 L50.9610598,0.233942058 L43.2715341,19.4767792 L46.6454965,19.4767792 L47.7033523,16.8298262 L54.2194096,16.8298262 L55.2772653,19.4767792 Z"
                  id="Fill-31" fill="#0C1030" fill-rule="nonzero"/>
            <polygon id="Fill-33" fill="#0C1030" fill-rule="nonzero"
                     points="12.1839674 16.3418661 3.13278162 16.3418661 3.13278162 10.9335145 8.97700099 10.9335145 8.97700099 7.79808991 3.13278162 7.79808991 3.13278162 3.48847952 11.7407856 3.48847952 11.7407856 0.353374625 0 0.353374625 0 19.476971 12.1839674 19.476971"/>
            <polygon id="Fill-35" fill="#0C1030" fill-rule="nonzero"
                     points="17.8457436 19.4768751 20.9785252 19.4768751 20.9785252 3.4887033 25.2921616 3.4887033 25.2921616 0.353598402 13.3773147 0.353598402 13.3773147 3.4887033 17.8457436 3.4887033"/>
            <path d="M42.2114625,13.2618422 L40.8668231,12.8142897 C40.5039279,13.6211628 39.9884881,14.3426813 39.3571146,14.9471968 L40.2261364,16.0676763 L39.1798419,15.1124715 C38.6894516,15.5504336 38.1357955,15.9183856 37.5346097,16.2016224 L37.5734684,18.7127113 L36.0782115,16.6948891 C35.6086957,16.7968671 35.1218379,16.8515325 34.6221344,16.8515325 C34.45,16.8515325 34.2797925,16.8435405 34.111833,16.8310729 L33.8603755,18.2277562 L33.8696887,16.8093347 C32.9746542,16.7124715 32.1329298,16.4426613 31.3753458,16.0344296 L30.5805089,17.2057383 L31.1637105,15.9139101 C30.5930336,15.5785654 30.0747036,15.1642597 29.6238142,14.6834605 L27.247332,15.4976863 L28.7037302,13.4498142 C28.373913,12.8868571 28.1224555,12.2708332 27.9641304,11.619964 L26.5620059,11.8130509 L27.9098567,11.3830809 C27.9159585,11.4172867 27.7679101,10.5045994 27.7679101,9.99183217 C27.7679101,9.57400999 27.8074111,9.16577822 27.8783844,8.76937463 L26.5180089,8.37361039 L27.9255929,8.53025375 C28.0672184,7.87490909 28.3029397,7.25408991 28.6179842,6.68282118 L27.1114872,4.67363037 L29.5078804,5.42647752 C29.9462451,4.93512887 30.4542984,4.50611788 31.0166255,4.15766633 L30.4009881,2.88214186 L31.226334,4.03395005 C31.9742836,3.6058981 32.8099061,3.31530869 33.6998024,3.19574825 L33.6548419,1.77828571 L33.9406621,3.16665734 C34.1651433,3.14396004 34.3912302,3.13245155 34.6221344,3.13245155 C35.0621047,3.13245155 35.493083,3.17592807 35.910252,3.25488911 L37.3550889,1.19998402 L37.3791749,3.71171229 C37.9874259,3.97992408 38.5510375,4.33508891 39.0517045,4.75962438 L39.05042,4.75962438 L40.0729496,3.77724675 L39.2341156,4.91850549 C39.8799407,5.50735664 40.4130435,6.21672727 40.7968132,7.01337063 L42.127001,6.53448951 L40.8960474,7.23458941 C41.1577816,7.82951449 41.3363389,8.46823576 41.419837,9.13700699 L43.820084,9.87738661 L41.4407115,10.6759481 C41.373913,11.3488751 41.2101285,11.9904735 40.9638093,12.5917922 L42.2114625,13.2618422 Z M38.2838439,0.696167832 C33.1573864,-1.32485115 27.3433547,1.2050989 25.323666,6.33724675 C23.3039773,11.4693946 25.8317194,17.2878961 30.9591403,19.3089151 C36.0855978,21.3305734 41.8996294,18.799984 43.9193182,13.6687952 C45.9390069,8.53792607 43.4103014,2.71814585 38.2838439,0.696167832 L38.2838439,0.696167832 Z"
                  id="Fill-37" fill="#0C1030" fill-rule="nonzero"/>
            <path d="M27.9254644,8.55358327 L26.5182016,8.37367433 L27.8785771,8.82821978 C27.8930287,8.73606234 27.9087648,8.64427206 27.9254644,8.55358327"
                  id="Fill-39" fill="#FFD82F" fill-rule="nonzero"/>
            <path d="M31.2263019,4.03388611 L30.400956,2.88207792 L31.0165934,4.1576024 C31.0862821,4.11572428 31.156292,4.07416583 31.2263019,4.03388611"
                  id="Fill-41" fill="#FFD82F" fill-rule="nonzero"/>
            <path d="M29.5079768,5.42638162 L27.1115835,4.67353447 L28.6180805,6.68304496 C28.8676112,6.23005794 29.1669195,5.80967832 29.5079768,5.42638162"
                  id="Fill-43" fill="#FFD82F" fill-rule="nonzero"/>
            <path d="M37.379207,3.71184016 L37.355121,1.19979221 L35.9102841,3.25501698 C36.4225124,3.35251948 36.9138661,3.50724476 37.379207,3.71184016"
                  id="Fill-45" fill="#FFD82F" fill-rule="nonzero"/>
            <path d="M43.8201482,9.87741858 L41.41958,9.13703896 C41.4539427,9.4173986 41.4751383,9.70287313 41.4751383,9.99154446 C41.4751383,10.2233127 41.4626136,10.4506054 41.4404545,10.67598 L43.8201482,9.87741858"
                  id="Fill-47" fill="#FFD82F" fill-rule="nonzero"/>
            <path d="M39.2341156,4.9186014 L40.0729496,3.77734266 L39.05042,4.75876124 C39.11208,4.81150849 39.1737401,4.86361638 39.2341156,4.9186014"
                  id="Fill-49" fill="#FFD82F" fill-rule="nonzero"/>
            <path d="M40.8959832,7.23442957 L42.1269368,6.53464935 L40.796749,7.01321079 C40.8314328,7.08577822 40.8635474,7.1609031 40.8959832,7.23442957"
                  id="Fill-51" fill="#FFD82F" fill-rule="nonzero"/>
            <path d="M34.0594195,3.16662537 L33.654874,1.77825375 L33.7185104,3.19571628 C33.8321467,3.18548651 33.9457831,3.17397802 34.0594195,3.16662537"
                  id="Fill-53" fill="#FFD82F" fill-rule="nonzero"/>
            <path d="M39.1798419,15.1123437 L40.2261364,16.0678681 L39.3571146,14.9470689 C39.2989872,15.0033327 39.2402174,15.0583177 39.1798419,15.1123437"
                  id="Fill-55" fill="#FFD82F" fill-rule="nonzero"/>
            <path d="M36.0783078,16.694953 L37.5732436,18.7127752 L37.534706,16.2016863 C37.0748246,16.4177902 36.5873246,16.5846633 36.0783078,16.694953"
                  id="Fill-57" fill="#FFD82F" fill-rule="nonzero"/>
            <path d="M40.866791,12.8141618 L42.2114303,13.2617143 L40.9637772,12.591984 C40.9335894,12.6667892 40.9001902,12.7412747 40.866791,12.8141618"
                  id="Fill-59" fill="#FFD82F" fill-rule="nonzero"/>
            <path d="M31.163582,15.914038 L30.5807016,17.2058661 L31.3755385,16.0342378 C31.3036018,15.9958761 31.2345553,15.9555964 31.163582,15.914038"
                  id="Fill-61" fill="#FFD82F" fill-rule="nonzero"/>
            <path d="M28.7036981,13.4497822 L27.2472999,15.4976543 L29.6237821,14.6834286 C29.2724481,14.3094026 28.9635054,13.8960559 28.7036981,13.4497822"
                  id="Fill-63" fill="#FFD82F" fill-rule="nonzero"/>
            <path d="M33.8736537,16.8092388 L33.8604718,18.2276603 L34.2163809,16.830977 C34.1009264,16.8249031 33.9859264,16.8185095 33.8736537,16.8092388"
                  id="Fill-65" fill="#FFD82F" fill-rule="nonzero"/>
            <path d="M27.9097925,11.3830809 L26.5619417,11.8376264 L27.9640662,11.6335034 C27.9451186,11.5510431 27.9264921,11.4675689 27.9097925,11.3830809"
                  id="Fill-67" fill="#FFD82F" fill-rule="nonzero"/>
            <path d="M3.96227026,26.9674965 C3.99759634,26.8760679 4.03420702,26.7846394 4.07081769,26.6973666 C4.10742836,26.6100939 4.14917737,26.5247393 4.1938167,26.4416224 L6.48166255,22.2963277 C6.52341156,22.2173666 6.56933547,22.1697343 6.61847085,22.1527912 C6.66824852,22.1387253 6.73633152,22.1300939 6.82271986,22.1300939 L7.55814476,22.1300939 L7.55814476,28.9968272 L6.68815958,28.9968272 L6.68815958,24.0574466 C6.68815958,23.989035 6.69040761,23.911992 6.69329792,23.833031 C6.69650939,23.7543896 6.70068429,23.6712727 6.70807065,23.5881558 L4.39100049,27.8108132 C4.35567441,27.8833806 4.30653903,27.9393247 4.24391551,27.9767273 C4.181292,28.016048 4.11128211,28.0349091 4.03517045,28.0349091 L3.89547184,28.0349091 C3.73168725,28.0349091 3.61157856,27.9601039 3.53450346,27.8108132 L1.16958251,23.5696144 C1.17568429,23.6568871 1.18210721,23.7396843 1.18917243,23.8228012 C1.19559536,23.9059181 1.19880682,23.9848791 1.19880682,24.0574466 L1.19880682,28.9968272 L0.32882164,28.9968272 L0.32882164,22.1300939 L1.06424654,22.1300939 C1.15063488,22.1300939 1.21871789,22.1387253 1.26849555,22.1527912 C1.31763093,22.1697343 1.36355484,22.2173666 1.40530385,22.2963277 L3.73682559,26.4502537 C3.81711215,26.6100939 3.89226038,26.7827213 3.96227026,26.9674965"
                  id="Fill-69" fill="#5683C0" fill-rule="nonzero"/>
            <path d="M10.9133202,24.7284875 C10.5125296,24.7284875 10.1987698,24.8445315 9.9691502,25.0753407 C9.73953063,25.3058302 9.59662055,25.6258302 9.53945652,26.0347013 L12.1298221,26.0347013 C12.1298221,25.8435325 12.1025247,25.6673886 12.048251,25.5072288 C11.9942984,25.3493067 11.9149753,25.2124835 11.8102816,25.0958002 C11.7062302,24.981994 11.5790563,24.8924835 11.4287599,24.82599 C11.2775,24.7617343 11.1063291,24.7284875 10.9133202,24.7284875 M10.899832,24.0638721 C11.194002,24.0638721 11.466334,24.1115045 11.7165069,24.209007 C11.967001,24.3068292 12.1831324,24.4481279 12.3655435,24.6329031 C12.5479545,24.8176783 12.6911858,25.044012 12.7933103,25.3141419 C12.8954348,25.5842717 12.9474605,25.8914845 12.9474605,26.2402557 C12.9474605,26.3818741 12.9320455,26.4752208 12.9018577,26.5228531 C12.8713488,26.5708052 12.8138636,26.5935025 12.7306868,26.5935025 L9.51023221,26.5935025 C9.51954545,26.8908052 9.56225791,27.1500659 9.63740613,27.3703257 C9.71255435,27.5905854 9.81596344,27.7731229 9.94506423,27.9166593 C10.0744862,28.0621139 10.2308844,28.1717642 10.4136166,28.2424136 C10.5960277,28.3153007 10.7996344,28.3504655 11.0237945,28.3504655 C11.235751,28.3504655 11.4181621,28.3255305 11.5694219,28.2782178 C11.7219664,28.2299461 11.8533152,28.1781578 11.9637895,28.119976 C12.074585,28.064032 12.1683597,28.010006 12.2454348,27.9620539 C12.322831,27.9144216 12.3896294,27.8917243 12.4467935,27.8917243 C12.5241897,27.8917243 12.5803903,27.9204955 12.6157164,27.9767592 L12.8755237,28.306989 C12.7628014,28.4418941 12.6337006,28.5563397 12.4856522,28.6496863 C12.338246,28.7433526 12.1799209,28.821994 12.0097134,28.8843317 C11.8398271,28.9466693 11.6644812,28.9923836 11.483997,29.0214745 C11.3022283,29.0486474 11.1239921,29.063033 10.9476828,29.063033 C10.6108004,29.063033 10.2986462,29.0070889 10.0118626,28.8926434 C9.72604249,28.7807552 9.47779644,28.6142018 9.27033597,28.3964995 C9.06159091,28.1781578 8.89876976,27.9061099 8.78187253,27.5822737 C8.66529644,27.2581179 8.60684783,26.8863297 8.60684783,26.464991 C8.60684783,26.1261299 8.65887352,25.8125235 8.76549407,25.5196963 C8.87083004,25.2287872 9.02176877,24.9736823 9.21927372,24.7598162 C9.41613636,24.5437123 9.65603261,24.3733227 9.93992589,24.2486474 C10.2238192,24.1258901 10.544002,24.0638721 10.899832,24.0638721"
                  id="Fill-71" fill="#5683C0" fill-rule="nonzero"/>
            <path d="M13.9229743,28.9967313 L13.9229743,24.1385495 L14.4708498,24.1385495 C14.5989872,24.1385495 14.6792737,24.2008871 14.7117095,24.3214066 L14.774333,24.7948531 C14.9538538,24.580987 15.1539279,24.4064416 15.3751976,24.2696184 C15.595504,24.1321558 15.8540267,24.0637443 16.1481966,24.0637443 C16.4757658,24.0637443 16.739748,24.151017 16.9420702,24.3278002 C17.1434289,24.5061818 17.2895504,24.744983 17.3794713,25.04804 C17.4501235,24.8757323 17.5410079,24.7283596 17.6537302,24.6036843 C17.765168,24.4793287 17.890415,24.3776703 18.0281868,24.2964715 C18.1659585,24.2175105 18.3130435,24.1593287 18.4684783,24.1196883 C18.623913,24.0826054 18.7812747,24.0637443 18.942169,24.0637443 C19.4637105,24.0637443 19.8673913,24.2213467 20.1532115,24.5394286 C20.4380682,24.8571908 20.5809783,25.3098581 20.5809783,25.8996683 L20.5809783,28.9967313 L19.6673172,28.9967313 L19.6673172,25.8996683 C19.6673172,25.5342737 19.5867095,25.2561518 19.4251729,25.0669011 C19.2633152,24.8802078 19.0285573,24.7846234 18.7208992,24.7846234 C18.5831275,24.7846234 18.4517787,24.8092388 18.3287796,24.8571908 C18.2054595,24.9048232 18.0972332,24.9757922 18.0041008,25.0669011 C17.9112895,25.1605674 17.8371047,25.2766114 17.7831522,25.4179101 C17.7288785,25.556971 17.7019022,25.719049 17.7019022,25.8996683 L17.7019022,28.9967313 L16.78792,28.9967313 L16.78792,25.8996683 C16.78792,25.524044 16.7118083,25.2436843 16.5592638,25.0605075 C16.4070405,24.87797 16.1838439,24.7846234 15.8896739,24.7846234 C15.6873518,24.7846234 15.4972332,24.8383297 15.3199605,24.9463816 C15.1414032,25.0525155 14.98083,25.1998881 14.8359931,25.3888192 L14.8359931,28.9967313 L13.9229743,28.9967313 Z"
                  id="Fill-73" fill="#5683C0" fill-rule="nonzero"/>
            <path d="M23.989207,24.7846873 C23.716875,24.7846873 23.4801902,24.8467053 23.279795,24.9694625 C23.0793997,25.0919001 22.8928137,25.2664456 22.7197159,25.4927792 L22.7197159,27.8149371 C22.8738661,28.016016 23.0421467,28.1576344 23.2245578,28.2385135 C23.40729,28.3193926 23.6064007,28.3612707 23.8212475,28.3612707 C24.2666774,28.3612707 24.6080558,28.203029 24.8447406,27.8916603 C25.0814254,27.5780539 25.2002495,27.1065255 25.2002495,26.4751568 C25.2002495,25.8936583 25.0949135,25.4678442 24.8855262,25.1935584 C24.6758177,24.9215105 24.3771517,24.7846873 23.989207,24.7846873 L23.989207,24.7846873 Z M21.8066971,28.9967952 L21.8066971,21.9392128 L22.7197159,21.9392128 L22.7197159,24.824008 C22.922038,24.5916004 23.1516576,24.4061858 23.4101803,24.2696823 C23.6680608,24.1322198 23.9622307,24.0638082 24.2917268,24.0638082 C24.5778681,24.0638082 24.8341428,24.1178342 25.0637624,24.2278042 C25.2924185,24.3380939 25.4873542,24.496016 25.6479274,24.699013 C25.8075371,24.9026494 25.9308572,25.1542378 26.0153187,25.448983 C26.1007436,25.744048 26.1424926,26.0742777 26.1424926,26.4419101 C26.1424926,26.8344775 26.0933572,27.1915604 25.996371,27.5134785 C25.8984214,27.8353966 25.7587228,28.1116004 25.5782386,28.3401718 C25.3964699,28.570981 25.1774481,28.7493626 24.9198888,28.874038 C24.661045,29.0006314 24.3700865,29.062969 24.0466922,29.062969 C23.7265094,29.062969 23.4583523,29.0028691 23.2412574,28.8842677 C23.0254471,28.7637483 22.8353286,28.6000719 22.671544,28.3878042 L22.6288315,28.8056264 C22.5996072,28.9322198 22.5225321,28.9967952 22.3982485,28.9967952 L21.8066971,28.9967952 Z"
                  id="Fill-75" fill="#5683C0" fill-rule="nonzero"/>
            <path d="M29.1855781,24.7284875 C28.7851087,24.7284875 28.4710277,24.8445315 28.2417292,25.0753407 C28.0121097,25.3058302 27.8688785,25.6258302 27.8117144,26.0347013 L30.40208,26.0347013 C30.40208,25.8435325 30.3751038,25.6673886 30.32083,25.5072288 C30.2665563,25.3493067 30.1872332,25.2124835 30.0828607,25.0958002 C29.9784881,24.981994 29.8513142,24.8924835 29.7010178,24.82599 C29.5497579,24.7617343 29.378587,24.7284875 29.1855781,24.7284875 M29.1720899,24.0638721 C29.4662599,24.0638721 29.7385919,24.1115045 29.9887648,24.209007 C30.2392589,24.3068292 30.4553903,24.4481279 30.6378014,24.6329031 C30.8205336,24.8176783 30.9634437,25.044012 31.0655682,25.3141419 C31.1676927,25.5842717 31.2200395,25.8914845 31.2200395,26.2402557 C31.2200395,26.3818741 31.2043034,26.4752208 31.1741156,26.5228531 C31.1439279,26.5708052 31.0864427,26.5935025 31.0029447,26.5935025 L27.7824901,26.5935025 C27.7918034,26.8908052 27.8345158,27.1500659 27.909664,27.3703257 C27.9848123,27.5905854 28.0882213,27.7731229 28.2176433,27.9166593 C28.3470652,28.0621139 28.5034634,28.1717642 28.6858745,28.2424136 C28.8686067,28.3153007 29.0718923,28.3504655 29.2963735,28.3504655 C29.5080089,28.3504655 29.69042,28.3255305 29.8416798,28.2782178 C29.9942243,28.2299461 30.1255731,28.1781578 30.2360474,28.119976 C30.3468429,28.064032 30.4406176,28.010006 30.5176927,27.9620539 C30.5950889,27.9144216 30.6618874,27.8917243 30.7190514,27.8917243 C30.7964476,27.8917243 30.8526482,27.9204955 30.8882955,27.9767592 L31.1477816,28.306989 C31.0353804,28.4418941 30.9059585,28.5563397 30.7579101,28.6496863 C30.610504,28.7433526 30.4521789,28.821994 30.2822925,28.8843317 C30.112085,28.9466693 29.9367391,28.9923836 29.7562549,29.0214745 C29.5748073,29.0486474 29.39625,29.063033 29.2199407,29.063033 C28.8830583,29.063033 28.5712253,29.0070889 28.2841206,28.8926434 C27.9986215,28.7807552 27.7500543,28.6142018 27.5425939,28.3964995 C27.3338488,28.1781578 27.1713488,27.9061099 27.0544516,27.5822737 C26.9375543,27.2581179 26.8791057,26.8863297 26.8791057,26.464991 C26.8791057,26.1261299 26.9311314,25.8125235 27.037752,25.5196963 C27.1430879,25.2287872 27.2943478,24.9736823 27.4915316,24.7598162 C27.6887154,24.5437123 27.9286117,24.3733227 28.2121838,24.2486474 C28.4960771,24.1258901 28.816581,24.0638721 29.1720899,24.0638721"
                  id="Fill-77" fill="#5683C0" fill-rule="nonzero"/>
            <path d="M32.1953928,28.9967313 L32.1953928,24.1385495 L32.7191823,24.1385495 C32.8180954,24.1385495 32.8871418,24.1570909 32.9237525,24.1925754 C32.960042,24.2277403 32.9850914,24.2900779 32.9976161,24.3834246 L33.0560647,25.0918362 C33.2095726,24.7699181 33.3984066,24.5164116 33.6225667,24.3316364 C33.8470479,24.1468611 34.1171319,24.0535145 34.4308918,24.0535145 C34.5365489,24.0535145 34.6367465,24.0637443 34.7314847,24.0867612 C34.8252594,24.1094585 34.907794,24.1446234 34.9787673,24.1925754 L34.9161438,24.8718961 C34.8975173,24.9569311 34.8451705,25.0004076 34.762957,25.0004076 C34.7179965,25.0004076 34.6511981,24.9924156 34.5625618,24.9713167 C34.4748888,24.9527752 34.3779027,24.9444635 34.2725667,24.9444635 C34.1213068,24.9444635 33.98771,24.9652428 33.8708127,25.0106374 C33.7542367,25.0544336 33.6485795,25.1209271 33.5557683,25.2062817 C33.462957,25.2932348 33.3804224,25.3971309 33.3084857,25.5218062 C33.2365489,25.6464815 33.1697505,25.790018 33.1084116,25.9476204 L33.1084116,28.9967313 L32.1953928,28.9967313 Z"
                  id="Fill-79" fill="#5683C0" fill-rule="nonzero"/>
            <path d="M40.0311685,22.0533706 C40.3295133,22.0533706 40.6050568,22.0968472 40.8584412,22.1841199 C41.1108622,22.2733107 41.3311685,22.397986 41.516791,22.5623017 C41.7024135,22.725978 41.8485351,22.9276963 41.953871,23.1664975 C42.0601705,23.4033806 42.1121961,23.6715924 42.1121961,23.9724116 C42.1121961,24.2278362 42.0749432,24.4647193 41.999795,24.6830609 C41.9246467,24.9007632 41.8212376,25.1085554 41.6921369,25.308036 C41.5627149,25.5052787 41.411455,25.6983656 41.2402841,25.8853786 C41.0681497,26.0743097 40.8867021,26.2632408 40.6946566,26.4563277 L38.9203236,28.2548492 C39.0516724,28.2196843 39.1849481,28.1905934 39.3198295,28.1678961 C39.4543898,28.1471169 39.5825272,28.1343297 39.7045627,28.1343297 L41.9246467,28.1343297 C42.0248444,28.1343297 42.1032041,28.1637403 42.1603681,28.2219221 C42.2188167,28.2781858 42.2470776,28.3549091 42.2470776,28.446018 L42.2470776,28.9968272 L37.6222505,28.9968272 L37.6222505,28.6851389 C37.6222505,28.6228012 37.6360598,28.5563077 37.6630361,28.4878961 C37.6912969,28.4191648 37.7330459,28.3568272 37.7911734,28.3031209 L39.9778582,26.1113926 C40.1605904,25.9266174 40.3263019,25.7482358 40.4733869,25.5800839 C40.6204718,25.4116124 40.7476458,25.2415425 40.8533029,25.0730709 C40.9586388,24.9026813 41.04021,24.7326114 41.0964106,24.5580659 C41.1516477,24.3835205 41.1799086,24.1987453 41.1799086,24.0015025 C41.1799086,23.8061778 41.1493997,23.6357882 41.0890242,23.4884156 C41.0276853,23.341043 40.9438661,23.2186054 40.8366033,23.1207832 C40.7290193,23.021043 40.6018454,22.9484755 40.4534758,22.9005235 C40.3063908,22.8528911 40.1480657,22.827956 39.9778582,22.827956 C39.8079718,22.827956 39.6525371,22.8528911 39.5115539,22.9027612 C39.3708918,22.9526314 39.2456448,23.021043 39.1348493,23.1083157 C39.024375,23.1955884 38.9306003,23.2991648 38.8554521,23.4196843 C38.7803039,23.5386054 38.7269936,23.6715924 38.694879,23.8144895 C38.6531299,23.9330909 38.5978928,24.0117323 38.5288463,24.0513726 C38.460121,24.0906933 38.3631349,24.1009231 38.2378878,24.0827013 L37.7568108,23.9951089 C37.8049827,23.6795844 37.8945825,23.4011429 38.0240044,23.1581858 C38.1543898,22.9152288 38.3181744,22.7119121 38.5163216,22.5475964 C38.7157535,22.3836004 38.943125,22.2608432 39.1997208,22.178046 C39.4553533,22.0949291 39.7328236,22.0533706 40.0311685,22.0533706"
                  id="Fill-81" fill="#5683C0" fill-rule="nonzero"/>
            <g id="Group-85" transform="translate(42.712451, 22.036172)">
                <g id="Fill-83-Clipped">
                    <mask id="mask-2" fill="white">
                        <use xlink:href="#path-1"/>
                    </mask>
                    <g id="path-1"/>
                    <path d="M4.35114625,3.52524276 C4.35114625,3.008 4.30843379,2.57355445 4.22172431,2.22286513 C4.13533597,1.87185614 4.01940217,1.58925874 3.87552866,1.37539261 C3.73165514,1.16120679 3.56465909,1.009998 3.3758251,0.918569431 C3.18699111,0.827460539 2.98980731,0.783664336 2.78427372,0.783664336 C2.57874012,0.783664336 2.38155632,0.827460539 2.19272233,0.918569431 C2.00388834,1.009998 1.83689229,1.16120679 1.69301877,1.37539261 C1.54914526,1.58925874 1.4341749,1.87185614 1.34971344,2.22286513 C1.26428854,2.57355445 1.22125494,3.008 1.22125494,3.52524276 C1.22125494,4.0444036 1.26428854,4.48044755 1.34971344,4.83145654 C1.4341749,5.18246553 1.54914526,5.46314486 1.69301877,5.67477323 C1.83689229,5.88863936 2.00388834,6.03824975 2.19272233,6.12935864 C2.38155632,6.22110689 2.57874012,6.26682118 2.78427372,6.26682118 C2.98980731,6.26682118 3.18699111,6.22110689 3.3758251,6.12935864 C3.56465909,6.03824975 3.73165514,5.88863936 3.87552866,5.67477323 C4.01940217,5.46314486 4.13533597,5.18246553 4.22172431,4.83145654 C4.30843379,4.48044755 4.35114625,4.0444036 4.35114625,3.52524276 M5.29852767,3.52524276 C5.29852767,4.12528272 5.23397727,4.64476324 5.10327075,5.08496304 C4.97384881,5.52516284 4.79561265,5.88863936 4.57016798,6.17731069 C4.34408103,6.46598202 4.07785079,6.68208591 3.77211957,6.82146653 C3.46670949,6.96244555 3.13689229,7.03309491 2.78427372,7.03309491 C2.43165514,7.03309491 2.10312253,6.96244555 1.79835474,6.82146653 C1.49487154,6.68208591 1.2286413,6.46598202 1.00351779,6.17731069 C0.777109684,5.88863936 0.599836957,5.52516284 0.472341897,5.08496304 C0.344204545,4.64476324 0.279333004,4.12528272 0.279333004,3.52524276 C0.279333004,2.92488312 0.344204545,2.40572228 0.472341897,1.9652028 C0.599836957,1.525003 0.777109684,1.15960839 1.00351779,0.870617383 C1.2286413,0.581946054 1.49487154,0.36807992 1.79835474,0.227100899 C2.10312253,0.0877202797 2.43165514,0.0170709291 2.78427372,0.0170709291 C3.13689229,0.0170709291 3.46670949,0.0877202797 3.77211957,0.227100899 C4.07785079,0.36807992 4.34408103,0.581946054 4.57016798,0.870617383 C4.79561265,1.15960839 4.97384881,1.525003 5.10327075,1.9652028 C5.23397727,2.40572228 5.29852767,2.92488312 5.29852767,3.52524276"
                          id="Fill-83" fill="#5683C0" fill-rule="nonzero" mask="url(#mask-2)"/>
                </g>
            </g>
            <path d="M49.4286141,28.3030569 L50.8956102,28.3030569 L50.8956102,23.7418581 C50.8956102,23.6027972 50.8997851,23.4573427 50.9090983,23.3077323 L49.7218207,24.316963 C49.6768602,24.3527672 49.6331843,24.3732268 49.5901507,24.3834565 C49.5464748,24.394006 49.5060104,24.394006 49.4674728,24.3856943 C49.4286141,24.3777023 49.393288,24.3652348 49.3618157,24.3463736 C49.3293799,24.3255944 49.3056151,24.3044955 49.289879,24.284036 L49.0063068,23.8853946 L51.068708,22.1156444 L51.8083078,22.1156444 L51.8083078,28.3030569 L53.1497357,28.3030569 L53.1497357,28.9967632 L49.4286141,28.9967632 L49.4286141,28.3030569 Z"
                  id="Fill-86" fill="#5683C0" fill-rule="nonzero"/>
            <path d="M55.2765837,27.2062359 C55.3013234,27.6670129 55.4791373,27.9855318 55.8100309,28.1618023 C55.9801164,28.2545762 56.1718463,28.3009624 56.3852262,28.3009624 C56.784154,28.3009624 57.1243199,28.134745 57.405734,27.8023052 C57.6871482,27.4698654 57.8866091,26.7949454 58.0041227,25.7775249 C57.8185749,26.0713089 57.588963,26.2777278 57.3152799,26.3967876 C57.0415969,26.5158475 56.7470442,26.5753765 56.4316129,26.5753765 C55.791473,26.5753765 55.2850897,26.3759156 54.9124479,25.9769878 C54.5398061,25.57806 54.3534879,25.0647188 54.3534879,24.4369487 C54.3534879,23.8339184 54.5374868,23.3035689 54.9054899,22.8458843 C55.273493,22.3881997 55.8162122,22.1593609 56.5336637,22.1593609 C57.5016048,22.1593609 58.1695668,22.5953917 58.53757,23.4674663 C58.7416726,23.9467981 58.8437223,24.546727 58.8437223,25.267271 C58.8437223,26.0805889 58.7215719,26.801122 58.4772672,27.4288921 C58.0721545,28.4741447 57.385638,28.9967632 56.4176969,28.9967632 C55.7682796,28.9967632 55.2750391,28.8266803 54.9379606,28.4865093 C54.6008821,28.1463383 54.4323454,27.7195848 54.4323454,27.2062359 L55.2765837,27.2062359 Z M56.5429411,25.8424663 C56.8738347,25.8424663 57.1761184,25.7334586 57.4498014,25.51544 C57.7234844,25.2974213 57.8603239,24.9162809 57.8603239,24.3720073 C57.8603239,23.8833981 57.7374003,23.519266 57.4915495,23.2796001 C57.2456986,23.0399342 56.9325914,22.920103 56.5522184,22.920103 C56.1440133,22.920103 55.8200826,23.0569425 55.5804167,23.3306255 C55.3407507,23.6043085 55.2209196,23.9699868 55.2209196,24.4276714 C55.2209196,24.8606163 55.3260618,25.2046477 55.5363493,25.4597759 C55.7466368,25.7149041 56.082164,25.8424663 56.5429411,25.8424663 Z"
                  id="9" fill="#5683C0" fill-rule="nonzero"/>
        </g>
    </g>
</svg>